<svg xmlns="http://www.w3.org/2000/svg" xmlns:xlink="http://www.w3.org/1999/xlink" contentStyleType="text/css" height="937px" preserveAspectRatio="none" style="width:1718px;height:937px;background:#FFFFFF;" version="1.1" viewBox="0 0 1718 937" width="1718px" zoomAndPan="magnify"><defs/><g><!--cluster ?????--><g id="cluster_&#1047;&#1072;&#1082;&#1072;&#1079;"><rect fill="none" height="338" rx="2.5" ry="2.5" style="stroke:#181818;stroke-width:1.0;" width="1419.68" x="292.45" y="593"/><text fill="#000000" font-family="sans-serif" font-size="14" font-weight="bold" lengthAdjust="spacing" textLength="46.4775" x="979.0512" y="607.9951">&#1047;&#1072;&#1082;&#1072;&#1079;</text></g><!--cluster ?????? ? ??????????--><g id="cluster_&#1056;&#1072;&#1073;&#1086;&#1090;&#1072; &#1089; &#1087;&#1088;&#1086;&#1076;&#1091;&#1082;&#1090;&#1072;&#1084;&#1080;"><rect fill="none" height="346" rx="2.5" ry="2.5" style="stroke:#181818;stroke-width:1.0;" width="1182.64" x="261.32" y="7"/><text fill="#000000" font-family="sans-serif" font-size="14" font-weight="bold" lengthAdjust="spacing" textLength="172.7715" x="766.2543" y="21.9951">&#1056;&#1072;&#1073;&#1086;&#1090;&#1072; &#1089; &#1087;&#1088;&#1086;&#1076;&#1091;&#1082;&#1090;&#1072;&#1084;&#1080;</text></g><!--cluster ?????? ? ???????--><g id="cluster_&#1056;&#1072;&#1073;&#1086;&#1090;&#1072; &#1089; &#1087;&#1088;&#1072;&#1074;&#1072;&#1084;&#1080;"><rect fill="none" height="192" rx="2.5" ry="2.5" style="stroke:#181818;stroke-width:1.0;" width="279.45" x="275.65" y="377"/><text fill="#000000" font-family="sans-serif" font-size="14" font-weight="bold" lengthAdjust="spacing" textLength="143.4111" x="343.6694" y="391.9951">&#1056;&#1072;&#1073;&#1086;&#1090;&#1072; &#1089; &#1087;&#1088;&#1072;&#1074;&#1072;&#1084;&#1080;</text></g><g id="elem_AP"><ellipse cx="415.3745" cy="732.9969" fill="#F1F1F1" rx="97.0345" ry="21.8069" style="stroke:#181818;stroke-width:0.5;"/><text fill="#000000" font-family="sans-serif" font-size="14" lengthAdjust="spacing" textLength="157.5" x="336.6245" y="735.8436">&#1040;&#1074;&#1090;&#1086;&#1079;&#1072;&#1082;&#1072;&#1079; &#1087;&#1088;&#1086;&#1076;&#1091;&#1082;&#1090;&#1086;&#1074;</text></g><g id="elem_AP0"><ellipse cx="845.6896" cy="730.9959" fill="#F1F1F1" rx="123.6796" ry="27.1359" style="stroke:#181818;stroke-width:0.5;"/><text fill="#000000" font-family="sans-serif" font-size="14" lengthAdjust="spacing" textLength="215.1885" x="738.0954" y="733.8426">&#1059;&#1090;&#1074;&#1077;&#1088;&#1076;&#1080;&#1090;&#1100; &#1089;&#1087;&#1080;&#1089;&#1086;&#1082; &#1087;&#1088;&#1086;&#1076;&#1091;&#1082;&#1090;&#1086;&#1074;</text></g><g id="elem_AP1"><ellipse cx="1282.9552" cy="673.999" fill="#F1F1F1" rx="76.2452" ry="17.649" style="stroke:#181818;stroke-width:0.5;"/><text fill="#000000" font-family="sans-serif" font-size="14" lengthAdjust="spacing" textLength="109.1973" x="1225.3565" y="677.7466">&#1042;&#1085;&#1077;&#1089;&#1090;&#1080; &#1087;&#1088;&#1072;&#1074;&#1082;&#1080;</text></g><g id="elem_AP2"><ellipse cx="1282.9612" cy="883.0042" fill="#F1F1F1" rx="75.0712" ry="17.4142" style="stroke:#181818;stroke-width:0.5;"/><text fill="#000000" font-family="sans-serif" font-size="14" lengthAdjust="spacing" textLength="106.1963" x="1226.863" y="886.7518">&#1059;&#1076;&#1072;&#1083;&#1080;&#1090;&#1100; &#1079;&#1072;&#1082;&#1072;&#1079;</text></g><g id="elem_AP3"><ellipse cx="1282.961" cy="807.0002" fill="#F1F1F1" rx="82.501" ry="18.9002" style="stroke:#181818;stroke-width:0.5;"/><text fill="#000000" font-family="sans-serif" font-size="14" lengthAdjust="spacing" textLength="124.5029" x="1219.9458" y="810.1028">&#1054;&#1090;&#1087;&#1088;&#1072;&#1074;&#1080;&#1090;&#1100; &#1079;&#1072;&#1082;&#1072;&#1079;</text></g><g id="elem_AP4"><ellipse cx="1617.5516" cy="806.9963" fill="#F1F1F1" rx="78.5816" ry="18.1163" style="stroke:#181818;stroke-width:0.5;"/><text fill="#000000" font-family="sans-serif" font-size="14" lengthAdjust="spacing" textLength="115.0557" x="1557.8065" y="810.5345">&#1055;&#1086;&#1083;&#1091;&#1095;&#1080;&#1090;&#1100; &#1079;&#1072;&#1082;&#1072;&#1079;</text></g><g id="elem_RZ"><ellipse cx="415.3678" cy="651.9956" fill="#F1F1F1" rx="106.9278" ry="23.7856" style="stroke:#181818;stroke-width:0.5;"/><text fill="#000000" font-family="sans-serif" font-size="14" lengthAdjust="spacing" textLength="179.2178" x="325.7589" y="654.8422">&#1056;&#1091;&#1095;&#1085;&#1086;&#1081; &#1079;&#1072;&#1082;&#1072;&#1079; &#1087;&#1088;&#1086;&#1076;&#1091;&#1082;&#1090;&#1086;&#1074;</text></g><g id="elem_RZ1"><ellipse cx="845.687" cy="811.0034" fill="#F1F1F1" rx="74.917" ry="17.3834" style="stroke:#181818;stroke-width:0.5;"/><text fill="#000000" font-family="sans-serif" font-size="14" lengthAdjust="spacing" textLength="105.7998" x="789.7871" y="814.751">&#1057;&#1086;&#1073;&#1088;&#1072;&#1090;&#1100; &#1079;&#1072;&#1082;&#1072;&#1079;</text></g><g id="elem_PP"><ellipse cx="415.3651" cy="149.001" fill="#F1F1F1" rx="138.0551" ry="30.011" style="stroke:#181818;stroke-width:0.5;"/><text fill="#000000" font-family="sans-serif" font-size="14" lengthAdjust="spacing" textLength="245.5264" x="292.6019" y="151.8477">&#1055;&#1088;&#1086;&#1089;&#1084;&#1086;&#1090;&#1088;&#1077;&#1090;&#1100; &#1085;&#1072;&#1083;&#1080;&#1095;&#1080;&#1077; &#1087;&#1088;&#1086;&#1076;&#1091;&#1082;&#1090;&#1086;&#1074;</text></g><g id="elem_KS"><ellipse cx="415.3746" cy="312.0049" fill="#F1F1F1" rx="111.8246" ry="24.7649" style="stroke:#181818;stroke-width:0.5;"/><text fill="#000000" font-family="sans-serif" font-size="14" lengthAdjust="spacing" textLength="189.8203" x="320.4644" y="314.8516">&#1050;&#1086;&#1085;&#1090;&#1088;&#1086;&#1083;&#1100; &#1089;&#1088;&#1086;&#1082;&#1072; &#1075;&#1086;&#1076;&#1085;&#1086;&#1089;&#1090;&#1080;</text></g><g id="elem_KS1"><ellipse cx="845.6941" cy="298.0028" fill="#F1F1F1" rx="183.2641" ry="39.0528" style="stroke:#181818;stroke-width:0.5;"/><text fill="#000000" font-family="sans-serif" font-size="14" lengthAdjust="spacing" textLength="339.1992" x="676.0945" y="300.8495">&#1055;&#1088;&#1086;&#1089;&#1084;&#1086;&#1090;&#1088;&#1077;&#1090;&#1100; &#1080;&#1085;&#1092;&#1086;&#1088;&#1084;&#1072;&#1094;&#1080;&#1102; &#1086; &#1089;&#1088;&#1086;&#1082;&#1072;&#1093; &#1075;&#1086;&#1076;&#1085;&#1086;&#1089;&#1090;&#1080;</text></g><g id="elem_KS2"><ellipse cx="1282.9639" cy="316.9968" fill="#F1F1F1" rx="83.2839" ry="19.0568" style="stroke:#181818;stroke-width:0.5;"/><text fill="#000000" font-family="sans-serif" font-size="14" lengthAdjust="spacing" textLength="126.3418" x="1219.2956" y="320.0123">&#1057;&#1087;&#1080;&#1089;&#1072;&#1090;&#1100; &#1087;&#1088;&#1086;&#1076;&#1091;&#1082;&#1090;</text></g><g id="elem_KS3"><ellipse cx="415.3722" cy="63.0004" fill="#F1F1F1" rx="91.0022" ry="20.6004" style="stroke:#181818;stroke-width:0.5;"/><text fill="#000000" font-family="sans-serif" font-size="14" lengthAdjust="spacing" textLength="144.0059" x="343.3692" y="65.8471">&#1055;&#1086;&#1090;&#1088;&#1072;&#1090;&#1080;&#1090;&#1100; &#1087;&#1088;&#1086;&#1076;&#1091;&#1082;&#1090;</text></g><g id="elem_UC1"><ellipse cx="415.3698" cy="233" fill="#F1F1F1" rx="82.0498" ry="18.81" style="stroke:#181818;stroke-width:0.5;"/><text fill="#000000" font-family="sans-serif" font-size="14" lengthAdjust="spacing" textLength="123.4365" x="352.731" y="236.1527">&#1048;&#1085;&#1074;&#1077;&#1085;&#1090;&#1072;&#1088;&#1080;&#1079;&#1072;&#1094;&#1080;&#1103;</text></g><g id="elem_UC2"><ellipse cx="1282.9598" cy="243.004" fill="#F1F1F1" rx="87.5198" ry="19.904" style="stroke:#181818;stroke-width:0.5;"/><text fill="#000000" font-family="sans-serif" font-size="14" lengthAdjust="spacing" textLength="136.1035" x="1214.908" y="245.8506">&#1044;&#1086;&#1073;&#1072;&#1074;&#1080;&#1090;&#1100; &#1087;&#1088;&#1086;&#1076;&#1091;&#1082;&#1090;</text></g><g id="elem_UC3"><ellipse cx="1282.962" cy="169.0024" fill="#F1F1F1" rx="83.512" ry="19.1024" style="stroke:#181818;stroke-width:0.5;"/><text fill="#000000" font-family="sans-serif" font-size="14" lengthAdjust="spacing" textLength="126.875" x="1219.1034" y="171.9926">&#1059;&#1076;&#1072;&#1083;&#1080;&#1090;&#1100; &#1087;&#1088;&#1086;&#1076;&#1091;&#1082;&#1090;</text></g><g id="elem_UC4"><ellipse cx="1282.9634" cy="83.0007" fill="#F1F1F1" rx="145.0034" ry="31.4007" style="stroke:#181818;stroke-width:0.5;"/><text fill="#000000" font-family="sans-serif" font-size="14" lengthAdjust="spacing" textLength="260.0664" x="1152.9302" y="85.8474">&#1054;&#1073;&#1085;&#1086;&#1074;&#1080;&#1090;&#1100; &#1080;&#1085;&#1092;&#1086;&#1088;&#1084;&#1072;&#1094;&#1080;&#1102; &#1086; &#1087;&#1088;&#1086;&#1076;&#1091;&#1082;&#1090;&#1077;</text></g><g id="elem_UC6"><ellipse cx="845.6852" cy="188.995" fill="#F1F1F1" rx="157.3752" ry="33.875" style="stroke:#181818;stroke-width:0.5;"/><text fill="#000000" font-family="sans-serif" font-size="14" lengthAdjust="spacing" textLength="285.8037" x="702.7833" y="191.8417">&#1055;&#1088;&#1086;&#1089;&#1084;&#1086;&#1090;&#1088;&#1077;&#1090;&#1100; &#1080;&#1085;&#1092;&#1086;&#1088;&#1084;&#1072;&#1094;&#1080;&#1102; &#1086; &#1087;&#1088;&#1086;&#1076;&#1091;&#1082;&#1090;&#1077;</text></g><g id="elem_UR1"><ellipse cx="415.3651" cy="438.003" fill="#F1F1F1" rx="116.6651" ry="25.733" style="stroke:#181818;stroke-width:0.5;"/><text fill="#000000" font-family="sans-serif" font-size="14" lengthAdjust="spacing" textLength="200.2246" x="315.2528" y="440.8497">&#1056;&#1077;&#1075;&#1080;&#1089;&#1090;&#1088;&#1072;&#1094;&#1080;&#1103; &#1087;&#1086;&#1083;&#1100;&#1079;&#1086;&#1074;&#1072;&#1090;&#1077;&#1083;&#1103;</text></g><g id="elem_UR2"><ellipse cx="415.3747" cy="526.0049" fill="#F1F1F1" rx="123.7247" ry="27.1449" style="stroke:#181818;stroke-width:0.5;"/><text fill="#000000" font-family="sans-serif" font-size="14" lengthAdjust="spacing" textLength="215.2842" x="307.7326" y="528.8516">&#1040;&#1091;&#1090;&#1077;&#1085;&#1092;&#1080;&#1082;&#1072;&#1094;&#1080;&#1103; &#1087;&#1086;&#1083;&#1100;&#1079;&#1086;&#1074;&#1072;&#1090;&#1077;&#1083;&#1103;</text></g><!--entity MS--><g id="elem_MS"><ellipse cx="110.1592" cy="326.35" fill="#F1F1F1" rx="8" ry="8" style="stroke:#181818;stroke-width:0.5;"/><path d="M110.1592,334.35 L110.1592,361.35 M97.1592,342.35 L123.1592,342.35 M110.1592,361.35 L97.1592,376.35 M110.1592,361.35 L123.1592,376.35 " fill="none" style="stroke:#181818;stroke-width:0.5;"/><text fill="#000000" font-family="sans-serif" font-size="14" lengthAdjust="spacing" textLength="208.3184" x="6" y="390.8451">&#1052;&#1077;&#1085;&#1077;&#1076;&#1078;&#1077;&#1088; &#1087;&#1086; &#1072;&#1089;&#1089;&#1086;&#1088;&#1090;&#1080;&#1084;&#1077;&#1085;&#1090;&#1091;</text></g><!--entity MP--><g id="elem_MP"><ellipse cx="110.1637" cy="437.35" fill="#F1F1F1" rx="8" ry="8" style="stroke:#181818;stroke-width:0.5;"/><path d="M110.1637,445.35 L110.1637,472.35 M97.1637,453.35 L123.1637,453.35 M110.1637,472.35 L97.1637,487.35 M110.1637,472.35 L123.1637,487.35 " fill="none" style="stroke:#181818;stroke-width:0.5;"/><text fill="#000000" font-family="sans-serif" font-size="14" lengthAdjust="spacing" textLength="171.5273" x="24.4" y="501.8451">&#1052;&#1077;&#1085;&#1077;&#1076;&#1078;&#1077;&#1088; &#1087;&#1086;&#1087;&#1086;&#1083;&#1085;&#1077;&#1085;&#1080;&#1103;</text></g><!--entity T--><g id="elem_T"><ellipse cx="110.159" cy="548.35" fill="#F1F1F1" rx="8" ry="8" style="stroke:#181818;stroke-width:0.5;"/><path d="M110.159,556.35 L110.159,583.35 M97.159,564.35 L123.159,564.35 M110.159,583.35 L97.159,598.35 M110.159,583.35 L123.159,598.35 " fill="none" style="stroke:#181818;stroke-width:0.5;"/><text fill="#000000" font-family="sans-serif" font-size="14" lengthAdjust="spacing" textLength="68.0381" x="76.14" y="612.8451">&#1058;&#1077;&#1093;&#1085;&#1086;&#1083;&#1086;&#1075;</text></g><!--entity R--><g id="elem_R"><ellipse cx="110.1563" cy="33.35" fill="#F1F1F1" rx="8" ry="8" style="stroke:#181818;stroke-width:0.5;"/><path d="M110.1563,41.35 L110.1563,68.35 M97.1563,49.35 L123.1563,49.35 M110.1563,68.35 L97.1563,83.35 M110.1563,68.35 L123.1563,83.35 " fill="none" style="stroke:#181818;stroke-width:0.5;"/><text fill="#000000" font-family="sans-serif" font-size="14" lengthAdjust="spacing" textLength="116.0127" x="52.15" y="97.8451">&#1057;&#1080;&#1089;&#1090;&#1077;&#1084;&#1072; &#1079;&#1072;&#1082;&#1072;&#1079;&#1072;</text></g><!--link MS to PP--><g id="link_MS_PP"><path d="M136.23,317.38 C161.62,281.23 204.08,228.25 253.32,197 C271.67,185.35 287.2729,178.2716 308.2629,171.4616 " fill="none" id="MS-to-PP" style="stroke:#181818;stroke-width:1.0;"/><polygon fill="#181818" points="313.97,169.61,304.1749,168.5827,309.214,171.153,306.6437,176.1922,313.97,169.61" style="stroke:#181818;stroke-width:1.0;"/></g><!--link MS to UR1--><g id="link_MS_UR1"><path d="M214.66,383.99 C256.01,395.17 296.8881,406.2234 334.7081,416.4534 " fill="none" id="MS-to-UR1" style="stroke:#181818;stroke-width:1.0;"/><polygon fill="#181818" points="340.5,418.02,332.8566,411.8088,335.6735,416.7145,330.7678,419.5313,340.5,418.02" style="stroke:#181818;stroke-width:1.0;"/></g><!--link MS to UR2--><g id="link_MS_UR2"><path d="M194.15,394.53 C201.37,399.54 208.24,405.03 214.32,411 C239.73,435.95 225.35,458.95 253.32,481 C270.53,494.57 285.8737,502.2585 307.0337,508.8785 " fill="none" id="MS-to-UR2" style="stroke:#181818;stroke-width:1.0;"/><polygon fill="#181818" points="312.76,510.67,305.3649,504.1652,307.9881,509.1771,302.9762,511.8003,312.76,510.67" style="stroke:#181818;stroke-width:1.0;"/></g><!--link T to AP--><g id="link_T_AP"><path d="M138.12,616.41 C162.17,647.44 200.33,689.39 244.32,711 C266.9,722.09 287.1511,727.4786 312.1211,730.7586 " fill="none" id="T-to-AP" style="stroke:#181818;stroke-width:1.0;"/><polygon fill="#181818" points="318.07,731.54,309.6676,726.4019,313.1126,730.8888,308.6257,734.3338,318.07,731.54" style="stroke:#181818;stroke-width:1.0;"/></g><!--link T to RZ--><g id="link_T_RZ"><path d="M144.66,593.32 C171.18,604.83 209.42,620.09 244.32,629 C267.41,634.9 286.7381,638.5268 310.5581,641.8668 " fill="none" id="T-to-RZ" style="stroke:#181818;stroke-width:1.0;"/><polygon fill="#181818" points="316.5,642.7,308.1426,637.489,311.5484,642.0057,307.0318,645.4115,316.5,642.7" style="stroke:#181818;stroke-width:1.0;"/></g><!--link T to UR1--><g id="link_T_UR1"><path d="M144.43,563.74 C165.51,553.88 192.77,539.59 214.32,523 C234.5,507.46 231.49,494.13 253.32,481 C273.9,468.62 292.2812,461.3179 315.5412,454.9779 " fill="none" id="T-to-UR1" style="stroke:#181818;stroke-width:1.0;"/><polygon fill="#181818" points="321.33,453.4,311.5949,451.9076,316.506,454.7149,313.6987,459.626,321.33,453.4" style="stroke:#181818;stroke-width:1.0;"/></g><!--link T to UR2--><g id="link_T_UR2"><path d="M144.48,572.29 C185.63,565.23 251.5362,553.9236 310.7562,543.7736 " fill="none" id="T-to-UR2" style="stroke:#181818;stroke-width:1.0;"/><polygon fill="#181818" points="316.67,542.76,307.1236,540.3379,311.7419,543.6047,308.4751,548.2229,316.67,542.76" style="stroke:#181818;stroke-width:1.0;"/></g><!--link T to KS--><g id="link_T_KS"><path d="M144.37,567.86 C167.09,559.32 196.24,544.92 214.32,523 C251.88,477.44 215.55,441.39 253.32,396 C278.13,366.18 310.717,347.8778 343.657,334.5678 " fill="none" id="T-to-KS" style="stroke:#181818;stroke-width:1.0;"/><polygon fill="#181818" points="349.22,332.32,339.3769,331.9831,344.5841,334.1932,342.374,339.4004,349.22,332.32" style="stroke:#181818;stroke-width:1.0;"/></g><!--link MP to AP--><g id="link_MP_AP"><path d="M196.05,503.85 C202.89,509.2 209.14,515.23 214.32,522 C261.66,583.93 198.73,637.35 253.32,693 C271.27,711.3 290.3659,720.3611 315.2659,726.1511 " fill="none" id="MP-to-AP" style="stroke:#181818;stroke-width:1.0;"/><polygon fill="#181818" points="321.11,727.51,313.2498,721.5756,316.2399,726.3776,311.4379,729.3677,321.11,727.51" style="stroke:#181818;stroke-width:1.0;"/></g><!--link MP to KS--><g id="link_MP_KS"><path d="M196.21,429.52 C202.93,424.31 209.11,418.49 214.32,412 C245.49,373.14 204.66,334.15 244.32,304 C274.79,280.84 312.097,281.8401 347.307,289.7801 " fill="none" id="MP-to-KS" style="stroke:#181818;stroke-width:1.0;"/><polygon fill="#181818" points="353.16,291.1,345.2604,285.2182,348.2825,290.0001,343.5005,293.0222,353.16,291.1" style="stroke:#181818;stroke-width:1.0;"/></g><!--link R to KS3--><g id="link_R_KS3"><path d="M168.55,63 C212.41,63 267.72,63 318.13,63 " fill="none" id="R-to-KS3" style="stroke:#181818;stroke-width:1.0;"/><polygon fill="#181818" points="324.13,63,315.13,59,319.13,63,315.13,67,324.13,63" style="stroke:#181818;stroke-width:1.0;"/></g><!--link MP to UC1--><g id="link_MP_UC1"><path d="M196.08,430.18 C202.91,424.82 209.16,418.78 214.32,412 C253.96,359.92 195.15,300 253.32,270 C280.6,255.93 307.3148,248.2666 336.0348,242.8266 " fill="none" id="MP-to-UC1" style="stroke:#181818;stroke-width:1.0;"/><polygon fill="#181818" points="341.93,241.71,332.3428,239.4548,337.0174,242.6405,333.8317,247.3151,341.93,241.71" style="stroke:#181818;stroke-width:1.0;"/></g><!--link MP to RZ--><g id="link_MP_RZ"><path d="M191.18,505.57 C199.29,510.67 207.16,516.16 214.32,522 C235.36,539.15 232.16,552 253.32,569 C285.93,595.21 322.6255,614.1796 355.6555,628.6696 " fill="none" id="MP-to-RZ" style="stroke:#181818;stroke-width:1.0;"/><polygon fill="#181818" points="361.15,631.08,354.5151,623.8014,356.5712,629.0713,351.3013,631.1274,361.15,631.08" style="stroke:#181818;stroke-width:1.0;"/></g><!--link MP to UR1--><g id="link_MP_UR1"><path d="M196.28,437.43 C212.07,433.1 228.56,429.32 244.32,427 C267.15,423.64 285.8682,423.0464 309.1782,424.2664 " fill="none" id="MP-to-UR1" style="stroke:#181818;stroke-width:1.0;"/><polygon fill="#181818" points="315.17,424.58,306.3914,420.1151,310.1768,424.3187,305.9732,428.1041,315.17,424.58" style="stroke:#181818;stroke-width:1.0;"/></g><!--link MP to UR2--><g id="link_MP_UR2"><path d="M196.23,494.22 C212.09,498.63 228.62,502.8 244.32,506 C262.52,509.71 276.0333,512.0019 295.0333,514.5519 " fill="none" id="MP-to-UR2" style="stroke:#181818;stroke-width:1.0;"/><polygon fill="#181818" points="300.98,515.35,292.592,510.1884,296.0244,514.6849,291.5279,518.1173,300.98,515.35" style="stroke:#181818;stroke-width:1.0;"/></g><!--reverse link AP to AP0--><g id="link_AP_AP0"><path d="M518.7599,732.5218 C580.5599,732.2318 655.34,731.88 721.74,731.57 " fill="none" id="AP-backto-AP0" style="stroke:#181818;stroke-width:1.0;stroke-dasharray:7.0,7.0;"/><polygon fill="#181818" points="512.76,732.55,521.7787,736.5077,517.7599,732.5265,521.7411,728.5078,512.76,732.55" style="stroke:#181818;stroke-width:1.0;"/><text fill="#000000" font-family="sans-serif" font-size="13" lengthAdjust="spacing" textLength="47.0996" x="584.43" y="728.0669">include</text></g><!--reverse link AP to AP2--><g id="link_AP_AP2"><path d="M450.5214,757.5878 C494.8314,788.2978 577.9,840.59 662.43,863 C857.47,914.71 1099.15,901.4 1214.52,890.58 " fill="none" id="AP-backto-AP2" style="stroke:#181818;stroke-width:1.0;stroke-dasharray:7.0,7.0;"/><polygon fill="#181818" points="445.59,754.17,450.7085,762.5843,449.6995,757.0182,455.2656,756.0091,445.59,754.17" style="stroke:#181818;stroke-width:1.0;"/><text fill="#000000" font-family="sans-serif" font-size="13" lengthAdjust="spacing" textLength="45.2778" x="823.19" y="859.0669">extend</text></g><!--reverse link AP0 to AP1--><g id="link_AP0_AP1"><path d="M931.8212,708.6067 C971.4712,698.9967 1014.52,689.87 1058.96,684 C1107.75,677.55 1163.02,675.04 1206.32,674.15 " fill="none" id="AP0-backto-AP1" style="stroke:#181818;stroke-width:1.0;stroke-dasharray:7.0,7.0;"/><polygon fill="#181818" points="925.99,710.02,935.679,711.7875,930.8493,708.8422,933.7946,704.0126,925.99,710.02" style="stroke:#181818;stroke-width:1.0;"/><text fill="#000000" font-family="sans-serif" font-size="13" lengthAdjust="spacing" textLength="45.2778" x="1060.96" y="674.0669">extend</text></g><!--reverse link AP0 to AP3--><g id="link_AP0_AP3"><path d="M949.4706,748.942 C1032.5206,763.442 1143.97,782.91 1216.4,795.55 " fill="none" id="AP0-backto-AP3" style="stroke:#181818;stroke-width:1.0;stroke-dasharray:7.0,7.0;"/><polygon fill="#181818" points="943.56,747.91,951.7379,753.3983,948.4855,748.77,953.1139,745.5175,943.56,747.91" style="stroke:#181818;stroke-width:1.0;"/><text fill="#000000" font-family="sans-serif" font-size="13" lengthAdjust="spacing" textLength="47.0996" x="1059.96" y="765.0669">include</text></g><!--reverse link AP3 to AP4--><g id="link_AP3_AP4"><path d="M1371.75,807 C1424.45,807 1486.57,807 1538.51,807 " fill="none" id="AP3-backto-AP4" style="stroke:#181818;stroke-width:1.0;stroke-dasharray:7.0,7.0;"/><polygon fill="#181818" points="1365.75,807,1374.75,811,1370.75,807,1374.75,803,1365.75,807" style="stroke:#181818;stroke-width:1.0;"/><text fill="#000000" font-family="sans-serif" font-size="13" lengthAdjust="spacing" textLength="47.0996" x="1460.96" y="803.0669">include</text></g><!--reverse link KS to KS1--><g id="link_KS_KS1"><path d="M532.3968,308.2044 C574.4068,306.8344 617.49,305.43 664.35,303.89 " fill="none" id="KS-backto-KS1" style="stroke:#181818;stroke-width:1.0;stroke-dasharray:7.0,7.0;"/><polygon fill="#181818" points="526.4,308.4,535.5256,312.1045,531.3973,308.237,535.2648,304.1088,526.4,308.4" style="stroke:#181818;stroke-width:1.0;"/><text fill="#000000" font-family="sans-serif" font-size="13" lengthAdjust="spacing" textLength="47.0996" x="584.43" y="301.0669">include</text></g><!--reverse link KS1 to KS2--><g id="link_KS1_KS2"><path d="M1031.6143,306.0721 C1092.4543,308.7321 1151.48,311.3 1200.81,313.46 " fill="none" id="KS1-backto-KS2" style="stroke:#181818;stroke-width:1.0;stroke-dasharray:7.0,7.0;"/><polygon fill="#181818" points="1025.62,305.81,1034.4367,310.1993,1030.6152,306.0284,1034.7861,302.2069,1025.62,305.81" style="stroke:#181818;stroke-width:1.0;"/><text fill="#000000" font-family="sans-serif" font-size="13" lengthAdjust="spacing" textLength="47.0996" x="1059.96" y="304.0669">include</text></g><!--reverse link UC1 to UC6--><g id="link_UC1_UC6"><path d="M496.9485,224.7264 C555.3085,218.7264 632.2,210.83 703.04,203.55 " fill="none" id="UC1-backto-UC6" style="stroke:#181818;stroke-width:1.0;stroke-dasharray:7.0,7.0;"/><polygon fill="#181818" points="490.98,225.34,500.3419,228.3986,495.9538,224.8286,499.5237,220.4405,490.98,225.34" style="stroke:#181818;stroke-width:1.0;"/><text fill="#000000" font-family="sans-serif" font-size="13" lengthAdjust="spacing" textLength="47.0996" x="584.43" y="207.0669">include</text></g><!--reverse link UC6 to UC4--><g id="link_UC6_UC4"><path d="M957.0597,162.1207 C1028.2397,144.7907 1115.95,123.43 1185.38,106.52 " fill="none" id="UC6-backto-UC4" style="stroke:#181818;stroke-width:1.0;stroke-dasharray:7.0,7.0;"/><polygon fill="#181818" points="951.23,163.54,960.9208,165.2975,956.0881,162.3572,959.0283,157.5245,951.23,163.54" style="stroke:#181818;stroke-width:1.0;"/><text fill="#000000" font-family="sans-serif" font-size="13" lengthAdjust="spacing" textLength="45.2778" x="1060.96" y="123.0669">extend</text></g><!--reverse link UC6 to UC2--><g id="link_UC6_UC2"><path d="M988.8743,206.639 C1062.1943,215.739 1143.96,225.88 1205.36,233.5 " fill="none" id="UC6-backto-UC2" style="stroke:#181818;stroke-width:1.0;stroke-dasharray:7.0,7.0;"/><polygon fill="#181818" points="982.92,205.9,991.3588,210.9781,987.8819,206.5158,992.3441,203.039,982.92,205.9" style="stroke:#181818;stroke-width:1.0;"/><text fill="#000000" font-family="sans-serif" font-size="13" lengthAdjust="spacing" textLength="45.2778" x="1060.96" y="212.0669">extend</text></g><!--reverse link UC6 to UC3--><g id="link_UC6_UC3"><path d="M1006.1437,181.6741 C1073.6937,178.5641 1144.32,175.32 1200.59,172.74 " fill="none" id="UC6-backto-UC3" style="stroke:#181818;stroke-width:1.0;stroke-dasharray:7.0,7.0;"/><polygon fill="#181818" points="1000.15,181.95,1009.3244,185.5318,1005.1447,181.72,1008.9565,177.5403,1000.15,181.95" style="stroke:#181818;stroke-width:1.0;"/><text fill="#000000" font-family="sans-serif" font-size="13" lengthAdjust="spacing" textLength="45.2778" x="1060.96" y="174.0669">extend</text></g><!--reverse link RZ to RZ1--><g id="link_RZ_RZ1"><path d="M514.71,665.6515 C534.54,671.9315 548.24,679.63 563.1,694 C584.25,714.45 561.85,737 583.43,757 C634.05,803.91 714.25,814.5 772.45,815.17 " fill="none" id="RZ-backto-RZ1" style="stroke:#181818;stroke-width:1.0;stroke-dasharray:7.0,7.0;"/><polygon fill="#181818" points="508.99,663.84,516.3624,670.3706,513.7567,665.3496,518.7777,662.7439,508.99,663.84" style="stroke:#181818;stroke-width:1.0;"/><text fill="#000000" font-family="sans-serif" font-size="13" lengthAdjust="spacing" textLength="47.0996" x="584.43" y="753.0669">include</text></g><!--reverse link RZ1 to AP2--><g id="link_RZ1_AP2"><path d="M913.5896,822.0691 C996.4196,835.7691 1137.72,859.14 1220.69,872.87 " fill="none" id="RZ1-backto-AP2" style="stroke:#181818;stroke-width:1.0;stroke-dasharray:7.0,7.0;"/><polygon fill="#181818" points="907.67,821.09,915.8966,826.505,912.603,821.9059,917.2021,818.6123,907.67,821.09" style="stroke:#181818;stroke-width:1.0;"/><text fill="#000000" font-family="sans-serif" font-size="13" lengthAdjust="spacing" textLength="45.2778" x="1060.96" y="843.0669">extend</text></g><!--reverse link RZ1 to AP1--><g id="link_RZ1_AP1"><path d="M925.4064,806.7277 C960.2864,802.4977 995.66,794.35 1028.96,776 C1046.03,766.59 1042.45,754.37 1058.96,744 C1108.78,712.7 1173.71,694.4 1220.64,684.42 " fill="none" id="RZ1-backto-AP1" style="stroke:#181818;stroke-width:1.0;stroke-dasharray:7.0,7.0;"/><polygon fill="#181818" points="919.45,807.45,928.8661,810.3374,924.4136,806.848,927.903,802.3956,919.45,807.45" style="stroke:#181818;stroke-width:1.0;"/><text fill="#000000" font-family="sans-serif" font-size="13" lengthAdjust="spacing" textLength="45.2778" x="1060.96" y="716.0669">extend</text></g><!--reverse link RZ1 to AP3--><g id="link_RZ1_AP3"><path d="M924.2113,816.0229 C976.7213,818.8529 1043.78,821.21 1107.96,819 C1139.73,817.91 1174.71,815.69 1204.93,813.46 " fill="none" id="RZ1-backto-AP3" style="stroke:#181818;stroke-width:1.0;stroke-dasharray:7.0,7.0;"/><polygon fill="#181818" points="918.22,815.7,926.9917,820.1786,923.2128,815.9691,927.4222,812.1901,918.22,815.7" style="stroke:#181818;stroke-width:1.0;"/><text fill="#000000" font-family="sans-serif" font-size="13" lengthAdjust="spacing" textLength="45.2778" x="1060.96" y="815.0669">extend</text></g><!--SRC=[dLJTQXD16BtVfnZgTQIx6xnG4KelGs3Pf3Uv2ydQ1a82oHO44VBJwere4K4HwO- -m3RfsZLjqbUOUIFFDxFRJE9E8ouiCymvt_b-Pzh1ov25NTPhxH-4hDdg1OsmrUrOLhqHTdjiYt_dCP_Zl-A_U2m6ZD_n1UEH68eXNuY16F64tn97ZCHuYzNxh5nvq5Z-D_9upXFnKTbugGt_0U8n4E8i-9J0whtU1Go6S1d3PSJuDO_u33zMgU9R57wzizyE6F-IWUorPHtsWqQz7q3YX4yWi5ZQ8YWnmC6L6FEPX2PIRCVJh7u2c50AI2L1fkyPqh-ZQC2VcIMsTTUVA6aPVw8i8cZEU99oRTqV_4IeWFAr33QbEXhr57gPc87kQlGpggmOYtScSj7IOpwNL6h7RxQvPdvDCxt0yIK5bkV7hzdmyqPh67m1lSHGZT1RCLpt4Q7dA1MwgIL33FJWbgomZvMhULexvCXZKwoUjvBeDm1pAKBreVxAxOpcR4hcL0JLF6bUgcoE8u7Y4TqI6bVn5X5zOBWzIsbnR1AtLmgf9Yqjv4ewATrPxR0C8Y8viucxalvNH31HrnY60uH-dOQiBkZUhXxHPsgjFd5_EzZRTSppd4VNX_GKwZHpz_g6IgwrDawbYl_T6eFW4qpgnb6bSkGDwJdAEbKFb-oABAfw2Z5eg3Fb6SbNxIQhjgzN-mHtS2HxSuIuP_yguL3GvKgXy0AZBbUIJJSEkczLiSKpHmjkRZLbL5C2hPXog-mfcbnB5MRvSdNL0Gs6t4117VXsje6J7UzveO1ta3rgjph1usQzVn0qdx6dhKwZVTWCCjnPnuDNOT1f0jwMkBq1TytwhYGKJGJBAbN0m8tB9p3WjYGuHWNK00oC2JDf09ECeY6F37SUXjry69zV0m6FgYbDG0yMEiFj3RYRZ_y1]--></g></svg>