<svg xmlns="http://www.w3.org/2000/svg" xmlns:xlink="http://www.w3.org/1999/xlink" contentStyleType="text/css" data-diagram-type="DESCRIPTION" height="987px" preserveAspectRatio="none" style="width:1675px;height:987px;background:#FFFFFF;" version="1.1" viewBox="0 0 1675 987" width="1675px" zoomAndPan="magnify"><defs/><g><!--cluster ?????--><g id="cluster_&#1047;&#1072;&#1082;&#1072;&#1079;"><rect fill="#FFFFFF" fill-opacity="0.00000" height="338" rx="2.5" ry="2.5" style="stroke:#181818;stroke-width:1;" width="1398.29" x="271.06" y="643"/><text fill="#000000" font-family="sans-serif" font-size="14" font-weight="bold" lengthAdjust="spacing" textLength="46.4775" x="946.9662" y="657.9951">&#1047;&#1072;&#1082;&#1072;&#1079;</text></g><!--cluster ?????? ? ??????????--><g id="cluster_&#1056;&#1072;&#1073;&#1086;&#1090;&#1072; &#1089; &#1087;&#1088;&#1086;&#1076;&#1091;&#1082;&#1090;&#1072;&#1084;&#1080;"><rect fill="#FFFFFF" fill-opacity="0.00000" height="398" rx="2.5" ry="2.5" style="stroke:#181818;stroke-width:1;" width="1135.02" x="266.16" y="7"/><text fill="#000000" font-family="sans-serif" font-size="14" font-weight="bold" lengthAdjust="spacing" textLength="172.7715" x="747.2843" y="21.9951">&#1056;&#1072;&#1073;&#1086;&#1090;&#1072; &#1089; &#1087;&#1088;&#1086;&#1076;&#1091;&#1082;&#1090;&#1072;&#1084;&#1080;</text></g><!--cluster ?????? ? ???????--><g id="cluster_&#1056;&#1072;&#1073;&#1086;&#1090;&#1072; &#1089; &#1087;&#1088;&#1072;&#1074;&#1072;&#1084;&#1080;"><rect fill="#FFFFFF" fill-opacity="0.00000" height="103" rx="2.5" ry="2.5" style="stroke:#181818;stroke-width:1;" width="265.33" x="261.32" y="429"/><text fill="#000000" font-family="sans-serif" font-size="14" font-weight="bold" lengthAdjust="spacing" textLength="143.4111" x="322.2794" y="443.9951">&#1056;&#1072;&#1073;&#1086;&#1090;&#1072; &#1089; &#1087;&#1088;&#1072;&#1074;&#1072;&#1084;&#1080;</text></g><g id="elem_AP"><ellipse cx="393.9845" cy="782.9969" fill="#F1F1F1" rx="97.0345" ry="21.8069" style="stroke:#181818;stroke-width:0.5;"/><text fill="#000000" font-family="sans-serif" font-size="14" lengthAdjust="spacing" textLength="157.5" x="315.2345" y="785.8436">&#1040;&#1074;&#1090;&#1086;&#1079;&#1072;&#1082;&#1072;&#1079; &#1087;&#1088;&#1086;&#1076;&#1091;&#1082;&#1090;&#1086;&#1074;</text></g><g id="elem_AP0"><ellipse cx="804.9096" cy="780.9959" fill="#F1F1F1" rx="123.6796" ry="27.1359" style="stroke:#181818;stroke-width:0.5;"/><text fill="#000000" font-family="sans-serif" font-size="14" lengthAdjust="spacing" textLength="215.1885" x="697.3154" y="783.8426">&#1059;&#1090;&#1074;&#1077;&#1088;&#1076;&#1080;&#1090;&#1100; &#1089;&#1087;&#1080;&#1089;&#1086;&#1082; &#1087;&#1088;&#1086;&#1076;&#1091;&#1082;&#1090;&#1086;&#1074;</text></g><g id="elem_AP1"><ellipse cx="1240.1752" cy="856.999" fill="#F1F1F1" rx="76.2452" ry="17.649" style="stroke:#181818;stroke-width:0.5;"/><text fill="#000000" font-family="sans-serif" font-size="14" lengthAdjust="spacing" textLength="109.1973" x="1182.5765" y="860.7466">&#1042;&#1085;&#1077;&#1089;&#1090;&#1080; &#1087;&#1088;&#1072;&#1074;&#1082;&#1080;</text></g><g id="elem_AP2"><ellipse cx="1240.1812" cy="933.0042" fill="#F1F1F1" rx="75.0712" ry="17.4142" style="stroke:#181818;stroke-width:0.5;"/><text fill="#000000" font-family="sans-serif" font-size="14" lengthAdjust="spacing" textLength="106.1963" x="1184.083" y="936.7518">&#1059;&#1076;&#1072;&#1083;&#1080;&#1090;&#1100; &#1079;&#1072;&#1082;&#1072;&#1079;</text></g><g id="elem_AP3"><ellipse cx="1240.181" cy="725.0002" fill="#F1F1F1" rx="82.501" ry="18.9002" style="stroke:#181818;stroke-width:0.5;"/><text fill="#000000" font-family="sans-serif" font-size="14" lengthAdjust="spacing" textLength="124.5029" x="1177.1658" y="728.1028">&#1054;&#1090;&#1087;&#1088;&#1072;&#1074;&#1080;&#1090;&#1100; &#1079;&#1072;&#1082;&#1072;&#1079;</text></g><g id="elem_AP4"><ellipse cx="1574.7716" cy="724.9963" fill="#F1F1F1" rx="78.5816" ry="18.1163" style="stroke:#181818;stroke-width:0.5;"/><text fill="#000000" font-family="sans-serif" font-size="14" lengthAdjust="spacing" textLength="115.0557" x="1515.0265" y="728.5345">&#1055;&#1086;&#1083;&#1091;&#1095;&#1080;&#1090;&#1100; &#1079;&#1072;&#1082;&#1072;&#1079;</text></g><g id="elem_RZ"><ellipse cx="393.9778" cy="701.9956" fill="#F1F1F1" rx="106.9278" ry="23.7856" style="stroke:#181818;stroke-width:0.5;"/><text fill="#000000" font-family="sans-serif" font-size="14" lengthAdjust="spacing" textLength="179.2178" x="304.3689" y="704.8422">&#1056;&#1091;&#1095;&#1085;&#1086;&#1081; &#1079;&#1072;&#1082;&#1072;&#1079; &#1087;&#1088;&#1086;&#1076;&#1091;&#1082;&#1090;&#1086;&#1074;</text></g><g id="elem_RZ1"><ellipse cx="804.907" cy="861.0034" fill="#F1F1F1" rx="74.917" ry="17.3834" style="stroke:#181818;stroke-width:0.5;"/><text fill="#000000" font-family="sans-serif" font-size="14" lengthAdjust="spacing" textLength="105.7998" x="749.0071" y="864.751">&#1057;&#1086;&#1073;&#1088;&#1072;&#1090;&#1100; &#1079;&#1072;&#1082;&#1072;&#1079;</text></g><g id="elem_PP"><ellipse cx="804.9051" cy="72.001" fill="#F1F1F1" rx="138.0551" ry="30.011" style="stroke:#181818;stroke-width:0.5;"/><text fill="#000000" font-family="sans-serif" font-size="14" lengthAdjust="spacing" textLength="245.5264" x="682.1419" y="74.8477">&#1055;&#1088;&#1086;&#1089;&#1084;&#1086;&#1090;&#1088;&#1077;&#1090;&#1100; &#1085;&#1072;&#1083;&#1080;&#1095;&#1080;&#1077; &#1087;&#1088;&#1086;&#1076;&#1091;&#1082;&#1090;&#1086;&#1074;</text></g><g id="elem_KS5"><ellipse cx="393.9822" cy="365.0004" fill="#F1F1F1" rx="91.0022" ry="20.6004" style="stroke:#181818;stroke-width:0.5;"/><text fill="#000000" font-family="sans-serif" font-size="14" lengthAdjust="spacing" textLength="144.0059" x="321.9792" y="367.8471">&#1055;&#1086;&#1090;&#1088;&#1072;&#1090;&#1080;&#1090;&#1100; &#1087;&#1088;&#1086;&#1076;&#1091;&#1082;&#1090;</text></g><g id="elem_KS4"><ellipse cx="804.9102" cy="370.996" fill="#F1F1F1" rx="80.2302" ry="18.446" style="stroke:#181818;stroke-width:0.5;"/><text fill="#000000" font-family="sans-serif" font-size="14" lengthAdjust="spacing" textLength="119.082" x="743.7895" y="374.351">&#1047;&#1072;&#1082;&#1072;&#1079;&#1072;&#1090;&#1100; &#1073;&#1083;&#1102;&#1076;&#1086;</text></g><g id="elem_KS"><ellipse cx="393.9846" cy="285.0049" fill="#F1F1F1" rx="111.8246" ry="24.7649" style="stroke:#181818;stroke-width:0.5;"/><text fill="#000000" font-family="sans-serif" font-size="14" lengthAdjust="spacing" textLength="189.8203" x="299.0744" y="287.8516">&#1050;&#1086;&#1085;&#1090;&#1088;&#1086;&#1083;&#1100; &#1089;&#1088;&#1086;&#1082;&#1072; &#1075;&#1086;&#1076;&#1085;&#1086;&#1089;&#1090;&#1080;</text></g><g id="elem_KS1"><ellipse cx="804.9141" cy="279.0028" fill="#F1F1F1" rx="183.2641" ry="39.0528" style="stroke:#181818;stroke-width:0.5;"/><text fill="#000000" font-family="sans-serif" font-size="14" lengthAdjust="spacing" textLength="339.1992" x="635.3145" y="281.8495">&#1055;&#1088;&#1086;&#1089;&#1084;&#1086;&#1090;&#1088;&#1077;&#1090;&#1100; &#1080;&#1085;&#1092;&#1086;&#1088;&#1084;&#1072;&#1094;&#1080;&#1102; &#1086; &#1089;&#1088;&#1086;&#1082;&#1072;&#1093; &#1075;&#1086;&#1076;&#1085;&#1086;&#1089;&#1090;&#1080;</text></g><g id="elem_KS2"><ellipse cx="1240.1839" cy="309.9968" fill="#F1F1F1" rx="83.2839" ry="19.0568" style="stroke:#181818;stroke-width:0.5;"/><text fill="#000000" font-family="sans-serif" font-size="14" lengthAdjust="spacing" textLength="126.3418" x="1176.5156" y="313.0123">&#1057;&#1087;&#1080;&#1089;&#1072;&#1090;&#1100; &#1087;&#1088;&#1086;&#1076;&#1091;&#1082;&#1090;</text></g><g id="elem_UC1"><ellipse cx="393.9798" cy="171" fill="#F1F1F1" rx="82.0498" ry="18.81" style="stroke:#181818;stroke-width:0.5;"/><text fill="#000000" font-family="sans-serif" font-size="14" lengthAdjust="spacing" textLength="123.4365" x="331.341" y="174.1527">&#1048;&#1085;&#1074;&#1077;&#1085;&#1090;&#1072;&#1088;&#1080;&#1079;&#1072;&#1094;&#1080;&#1103;</text></g><g id="elem_UC2"><ellipse cx="1240.1798" cy="236.004" fill="#F1F1F1" rx="87.5198" ry="19.904" style="stroke:#181818;stroke-width:0.5;"/><text fill="#000000" font-family="sans-serif" font-size="14" lengthAdjust="spacing" textLength="136.1035" x="1172.128" y="238.8506">&#1044;&#1086;&#1073;&#1072;&#1074;&#1080;&#1090;&#1100; &#1087;&#1088;&#1086;&#1076;&#1091;&#1082;&#1090;</text></g><g id="elem_UC3"><ellipse cx="1240.182" cy="162.0024" fill="#F1F1F1" rx="83.512" ry="19.1024" style="stroke:#181818;stroke-width:0.5;"/><text fill="#000000" font-family="sans-serif" font-size="14" lengthAdjust="spacing" textLength="126.875" x="1176.3234" y="164.9926">&#1059;&#1076;&#1072;&#1083;&#1080;&#1090;&#1100; &#1087;&#1088;&#1086;&#1076;&#1091;&#1082;&#1090;</text></g><g id="elem_UC4"><ellipse cx="1240.1834" cy="76.0007" fill="#F1F1F1" rx="145.0034" ry="31.4007" style="stroke:#181818;stroke-width:0.5;"/><text fill="#000000" font-family="sans-serif" font-size="14" lengthAdjust="spacing" textLength="260.0664" x="1110.1502" y="78.8474">&#1054;&#1073;&#1085;&#1086;&#1074;&#1080;&#1090;&#1100; &#1080;&#1085;&#1092;&#1086;&#1088;&#1084;&#1072;&#1094;&#1080;&#1102; &#1086; &#1087;&#1088;&#1086;&#1076;&#1091;&#1082;&#1090;&#1077;</text></g><g id="elem_UC6"><ellipse cx="804.9052" cy="170.995" fill="#F1F1F1" rx="157.3752" ry="33.875" style="stroke:#181818;stroke-width:0.5;"/><text fill="#000000" font-family="sans-serif" font-size="14" lengthAdjust="spacing" textLength="285.8037" x="662.0033" y="173.8417">&#1055;&#1088;&#1086;&#1089;&#1084;&#1086;&#1090;&#1088;&#1077;&#1090;&#1100; &#1080;&#1085;&#1092;&#1086;&#1088;&#1084;&#1072;&#1094;&#1080;&#1102; &#1086; &#1087;&#1088;&#1086;&#1076;&#1091;&#1082;&#1090;&#1077;</text></g><g id="elem_UR1"><ellipse cx="393.9751" cy="490.003" fill="#F1F1F1" rx="116.6651" ry="25.733" style="stroke:#181818;stroke-width:0.5;"/><text fill="#000000" font-family="sans-serif" font-size="14" lengthAdjust="spacing" textLength="200.2246" x="293.8628" y="492.8497">&#1056;&#1077;&#1075;&#1080;&#1089;&#1090;&#1088;&#1072;&#1094;&#1080;&#1103; &#1087;&#1086;&#1083;&#1100;&#1079;&#1086;&#1074;&#1072;&#1090;&#1077;&#1083;&#1103;</text></g><!--entity K--><g id="elem_K"><ellipse cx="393.9873" cy="559.35" fill="#F1F1F1" rx="8" ry="8" style="stroke:#181818;stroke-width:0.5;"/><path d="M393.9873,567.35 L393.9873,594.35 M380.9873,575.35 L406.9873,575.35 M393.9873,594.35 L380.9873,609.35 M393.9873,594.35 L406.9873,609.35 " fill="#FFFFFF" fill-opacity="0.00000" style="stroke:#181818;stroke-width:0.5;"/><text fill="#000000" font-family="sans-serif" font-size="14" lengthAdjust="spacing" textLength="135.4746" x="326.25" y="623.8451">&#1050;&#1083;&#1080;&#1077;&#1085;&#1090; &#1088;&#1077;&#1089;&#1090;&#1086;&#1088;&#1072;&#1085;&#1072;</text></g><!--entity MS--><g id="elem_MS"><ellipse cx="110.1592" cy="81.35" fill="#F1F1F1" rx="8" ry="8" style="stroke:#181818;stroke-width:0.5;"/><path d="M110.1592,89.35 L110.1592,116.35 M97.1592,97.35 L123.1592,97.35 M110.1592,116.35 L97.1592,131.35 M110.1592,116.35 L123.1592,131.35 " fill="#FFFFFF" fill-opacity="0.00000" style="stroke:#181818;stroke-width:0.5;"/><text fill="#000000" font-family="sans-serif" font-size="14" lengthAdjust="spacing" textLength="208.3184" x="6" y="145.8451">&#1052;&#1077;&#1085;&#1077;&#1076;&#1078;&#1077;&#1088; &#1087;&#1086; &#1072;&#1089;&#1089;&#1086;&#1088;&#1090;&#1080;&#1084;&#1077;&#1085;&#1090;&#1091;</text></g><!--entity MP--><g id="elem_MP"><ellipse cx="110.1637" cy="460.35" fill="#F1F1F1" rx="8" ry="8" style="stroke:#181818;stroke-width:0.5;"/><path d="M110.1637,468.35 L110.1637,495.35 M97.1637,476.35 L123.1637,476.35 M110.1637,495.35 L97.1637,510.35 M110.1637,495.35 L123.1637,510.35 " fill="#FFFFFF" fill-opacity="0.00000" style="stroke:#181818;stroke-width:0.5;"/><text fill="#000000" font-family="sans-serif" font-size="14" lengthAdjust="spacing" textLength="171.5273" x="24.4" y="524.8451">&#1052;&#1077;&#1085;&#1077;&#1076;&#1078;&#1077;&#1088; &#1087;&#1086;&#1087;&#1086;&#1083;&#1085;&#1077;&#1085;&#1080;&#1103;</text></g><!--entity T--><g id="elem_T"><ellipse cx="110.159" cy="621.35" fill="#F1F1F1" rx="8" ry="8" style="stroke:#181818;stroke-width:0.5;"/><path d="M110.159,629.35 L110.159,656.35 M97.159,637.35 L123.159,637.35 M110.159,656.35 L97.159,671.35 M110.159,656.35 L123.159,671.35 " fill="#FFFFFF" fill-opacity="0.00000" style="stroke:#181818;stroke-width:0.5;"/><text fill="#000000" font-family="sans-serif" font-size="14" lengthAdjust="spacing" textLength="68.0381" x="76.14" y="685.8451">&#1058;&#1077;&#1093;&#1085;&#1086;&#1083;&#1086;&#1075;</text></g><!--link K to KS4--><g id="link_K_KS4"><path d="M461.97,564.05 C485.31,554.73 511.45,543.58 534.65,532 C626.99,485.88 725.1494,423.1206 772.5294,391.9106 " fill="#FFFFFF" fill-opacity="0.00000" id="K-to-KS4" style="stroke:#181818;stroke-width:1;"/><polygon fill="#181818" points="777.54,388.61,767.8237,390.2205,773.3645,391.3605,772.2245,396.9013,777.54,388.61" style="stroke:#181818;stroke-width:1;"/></g><!--link MS to PP--><g id="link_MS_PP"><path d="M214.5,105.18 C335.95,98.34 531.7795,87.3172 664.8295,79.8272 " fill="#FFFFFF" fill-opacity="0.00000" id="MS-to-PP" style="stroke:#181818;stroke-width:1;"/><polygon fill="#181818" points="670.82,79.49,661.6094,76.0022,665.8279,79.771,662.059,83.9895,670.82,79.49" style="stroke:#181818;stroke-width:1;"/></g><!--link MS to UR1--><g id="link_MS_UR1"><path d="M121.93,149.36 C140.43,209.68 183.19,327.77 253.32,405 C277.27,431.37 305.9527,449.5985 334.4227,464.0885 " fill="#FFFFFF" fill-opacity="0.00000" id="MS-to-UR1" style="stroke:#181818;stroke-width:1;"/><polygon fill="#181818" points="339.77,466.81,333.5634,459.1629,335.3139,464.5421,329.9347,466.2926,339.77,466.81" style="stroke:#181818;stroke-width:1;"/></g><!--link T to AP--><g id="link_T_AP"><path d="M144.57,676.69 C172.39,697.06 213.71,724.99 253.32,743 C275.59,753.12 295.2511,759.7426 318.2611,766.0126 " fill="#FFFFFF" fill-opacity="0.00000" id="T-to-AP" style="stroke:#181818;stroke-width:1;"/><polygon fill="#181818" points="324.05,767.59,316.4182,761.3646,319.2259,766.2755,314.315,769.0831,324.05,767.59" style="stroke:#181818;stroke-width:1;"/></g><!--link T to RZ--><g id="link_T_RZ"><path d="M144.59,657.05 C185.06,664.37 248.716,675.8912 303.956,685.8912 " fill="#FFFFFF" fill-opacity="0.00000" id="T-to-RZ" style="stroke:#181818;stroke-width:1;"/><polygon fill="#181818" points="309.86,686.96,301.7165,681.4208,304.94,686.0693,300.2914,689.2928,309.86,686.96" style="stroke:#181818;stroke-width:1;"/></g><!--link T to UR1--><g id="link_T_UR1"><path d="M144.53,616.7 C171.68,590.52 212.13,555.28 253.32,533 C271.73,523.04 287.0538,516.8318 307.1238,510.5518 " fill="#FFFFFF" fill-opacity="0.00000" id="T-to-UR1" style="stroke:#181818;stroke-width:1;"/><polygon fill="#181818" points="312.85,508.76,303.0662,507.6302,308.0782,510.2531,305.4552,515.2651,312.85,508.76" style="stroke:#181818;stroke-width:1;"/></g><!--link T to KS--><g id="link_T_KS"><path d="M144.41,626.26 C167.76,607.03 197.68,578.25 214.32,546 C225.65,524.04 236.88,345.46 253.32,327 C265.27,313.57 275.7147,306.4471 292.6947,300.1471 " fill="#FFFFFF" fill-opacity="0.00000" id="T-to-KS" style="stroke:#181818;stroke-width:1;"/><polygon fill="#181818" points="298.32,298.06,288.4906,297.4405,293.6323,299.7993,291.2735,304.9409,298.32,298.06" style="stroke:#181818;stroke-width:1;"/></g><!--link MP to AP--><g id="link_MP_AP"><path d="M158.66,528.43 C178.46,546.71 200.11,570.01 214.32,595 C214.58,595.46 252.95,742.62 253.32,743 C267.7,757.69 281.3377,765.3404 301.0777,771.3204 " fill="#FFFFFF" fill-opacity="0.00000" id="MP-to-AP" style="stroke:#181818;stroke-width:1;"/><polygon fill="#181818" points="306.82,773.06,299.3663,766.6225,302.0348,771.6104,297.0469,774.2789,306.82,773.06" style="stroke:#181818;stroke-width:1;"/></g><!--link MP to KS--><g id="link_MP_KS"><path d="M135.31,451.47 C160.46,414.4 203.15,359.36 253.32,327 C270.34,316.02 284.6347,309.5948 304.1247,303.4848 " fill="#FFFFFF" fill-opacity="0.00000" id="MP-to-KS" style="stroke:#181818;stroke-width:1;"/><polygon fill="#181818" points="309.85,301.69,300.0656,300.5654,305.079,303.1857,302.4587,308.1991,309.85,301.69" style="stroke:#181818;stroke-width:1;"/></g><!--link MP to UC1--><g id="link_MP_UC1"><path d="M125.14,451.68 C146.02,398.94 189.8,303.65 253.32,243 C280.05,217.47 312.0492,201.0534 341.4892,189.1234 " fill="#FFFFFF" fill-opacity="0.00000" id="MP-to-UC1" style="stroke:#181818;stroke-width:1;"/><polygon fill="#181818" points="347.05,186.87,337.2066,186.5429,342.416,188.7478,340.2111,193.9573,347.05,186.87" style="stroke:#181818;stroke-width:1;"/></g><!--link MP to RZ--><g id="link_MP_RZ"><path d="M155.26,528.49 C183.52,554.78 219.6,591.53 245.32,629 C249.82,635.56 247.49,639.6 253.32,645 C272.53,662.8 292.4033,673.3339 316.3633,682.0739 " fill="#FFFFFF" fill-opacity="0.00000" id="MP-to-RZ" style="stroke:#181818;stroke-width:1;"/><polygon fill="#181818" points="322,684.13,314.9157,677.288,317.3028,682.4166,312.1742,684.8036,322,684.13" style="stroke:#181818;stroke-width:1;"/></g><!--link MP to UR1--><g id="link_MP_UR1"><path d="M196.1,490 C221.54,490 243.9,490 270.98,490 " fill="#FFFFFF" fill-opacity="0.00000" id="MP-to-UR1" style="stroke:#181818;stroke-width:1;"/><polygon fill="#181818" points="276.98,490,267.98,486,271.98,490,267.98,494,276.98,490" style="stroke:#181818;stroke-width:1;"/></g><!--reverse link KS5 to KS4--><g id="link_KS5_KS4"><path d="M491.2294,366.408 C562.8494,367.458 656,368.83 724.6,369.84 " fill="#FFFFFF" fill-opacity="0.00000" id="KS5-backto-KS4" style="stroke:#181818;stroke-width:1;stroke-dasharray:7.0,7.0;"/><polygon fill="#181818" points="485.23,366.32,494.1704,370.4515,490.2295,366.3933,494.2877,362.4524,485.23,366.32" style="stroke:#181818;stroke-width:1;"/><text fill="#000000" font-family="sans-serif" font-size="13" lengthAdjust="spacing" textLength="47.0996" x="543.65" y="364.0669">include</text></g><!--reverse link AP to AP0--><g id="link_AP_AP0"><path d="M497.3799,782.5004 C554.0499,782.2204 620.26,781.9 681,781.6 " fill="#FFFFFF" fill-opacity="0.00000" id="AP-backto-AP0" style="stroke:#181818;stroke-width:1;stroke-dasharray:7.0,7.0;"/><polygon fill="#181818" points="491.38,782.53,500.3997,786.4855,496.3799,782.5053,500.3601,778.4856,491.38,782.53" style="stroke:#181818;stroke-width:1;"/><text fill="#000000" font-family="sans-serif" font-size="13" lengthAdjust="spacing" textLength="47.0996" x="543.65" y="778.0669">include</text></g><!--reverse link AP to AP2--><g id="link_AP_AP2"><path d="M426.3882,807.7889 C466.8382,838.5089 542.66,890.58 621.65,913 C815.9,968.14 1058.39,953 1173.14,941.12 " fill="#FFFFFF" fill-opacity="0.00000" id="AP-backto-AP2" style="stroke:#181818;stroke-width:1;stroke-dasharray:7.0,7.0;"/><polygon fill="#181818" points="421.61,804.16,426.3581,812.7888,425.5919,807.184,431.1966,806.4178,421.61,804.16" style="stroke:#181818;stroke-width:1;"/><text fill="#000000" font-family="sans-serif" font-size="13" lengthAdjust="spacing" textLength="45.2778" x="782.41" y="909.0669">extend</text></g><!--reverse link AP0 to AP1--><g id="link_AP0_AP1"><path d="M908.5197,798.997 C992.8097,813.787 1106.58,833.74 1178.19,846.3 " fill="#FFFFFF" fill-opacity="0.00000" id="AP0-backto-AP1" style="stroke:#181818;stroke-width:1;stroke-dasharray:7.0,7.0;"/><polygon fill="#181818" points="902.61,797.96,910.7833,803.4552,907.5348,798.8241,912.1659,795.5756,902.61,797.96" style="stroke:#181818;stroke-width:1;"/><text fill="#000000" font-family="sans-serif" font-size="13" lengthAdjust="spacing" textLength="45.2778" x="1019.18" y="815.0669">extend</text></g><!--reverse link AP0 to AP3--><g id="link_AP0_AP3"><path d="M891.0304,758.5236 C930.6704,748.8936 973.73,739.78 1018.18,734 C1063.97,728.05 1115.5,725.7 1157.28,724.89 " fill="#FFFFFF" fill-opacity="0.00000" id="AP0-backto-AP3" style="stroke:#181818;stroke-width:1;stroke-dasharray:7.0,7.0;"/><polygon fill="#181818" points="885.2,759.94,894.8899,761.7023,890.0587,758.7596,893.0013,753.9284,885.2,759.94" style="stroke:#181818;stroke-width:1;"/><text fill="#000000" font-family="sans-serif" font-size="13" lengthAdjust="spacing" textLength="45.2778" x="1019.18" y="725.0669">extend</text></g><!--reverse link AP3 to AP4--><g id="link_AP3_AP4"><path d="M1328.97,725 C1381.67,725 1443.79,725 1495.73,725 " fill="#FFFFFF" fill-opacity="0.00000" id="AP3-backto-AP4" style="stroke:#181818;stroke-width:1;stroke-dasharray:7.0,7.0;"/><polygon fill="#181818" points="1322.97,725,1331.97,729,1327.97,725,1331.97,721,1322.97,725" style="stroke:#181818;stroke-width:1;"/><text fill="#000000" font-family="sans-serif" font-size="13" lengthAdjust="spacing" textLength="47.0996" x="1418.18" y="721.0669">include</text></g><!--reverse link KS to KS1--><g id="link_KS_KS1"><path d="M511.9194,283.2826 C547.6294,282.7626 582.2,282.25 621.65,281.67 " fill="#FFFFFF" fill-opacity="0.00000" id="KS-backto-KS1" style="stroke:#181818;stroke-width:1;stroke-dasharray:7.0,7.0;"/><polygon fill="#181818" points="505.92,283.37,514.9773,287.2385,510.9195,283.2972,514.8608,279.2394,505.92,283.37" style="stroke:#181818;stroke-width:1;"/><text fill="#000000" font-family="sans-serif" font-size="13" lengthAdjust="spacing" textLength="47.0996" x="543.65" y="279.0669">include</text></g><!--reverse link KS1 to KS2--><g id="link_KS1_KS2"><path d="M985.3147,291.8379 C1047.9747,296.3179 1109.68,300.73 1160.26,304.35 " fill="#FFFFFF" fill-opacity="0.00000" id="KS1-backto-KS2" style="stroke:#181818;stroke-width:1;stroke-dasharray:7.0,7.0;"/><polygon fill="#181818" points="979.33,291.41,988.0218,296.0416,984.3173,291.7666,988.5923,288.062,979.33,291.41" style="stroke:#181818;stroke-width:1;"/><text fill="#000000" font-family="sans-serif" font-size="13" lengthAdjust="spacing" textLength="45.2778" x="1019.18" y="291.0669">extend</text></g><!--reverse link UC1 to PP--><g id="link_UC1_PP"><path d="M457.6717,155.819 C524.8317,139.569 631.64,113.71 711.41,94.4 " fill="#FFFFFF" fill-opacity="0.00000" id="UC1-backto-PP" style="stroke:#181818;stroke-width:1;stroke-dasharray:7.0,7.0;"/><polygon fill="#181818" points="451.84,157.23,461.5283,159.0013,456.6998,156.0541,459.6469,151.2256,451.84,157.23" style="stroke:#181818;stroke-width:1;"/><text fill="#000000" font-family="sans-serif" font-size="13" lengthAdjust="spacing" textLength="47.0996" x="543.65" y="121.0669">include</text></g><!--reverse link UC1 to UC6--><g id="link_UC1_UC6"><path d="M482.2195,172.3806 C503.8095,172.6706 521.11,172.85 542.65,173 C576.55,173.23 612.93,173.15 647.45,172.93 " fill="#FFFFFF" fill-opacity="0.00000" id="UC1-backto-UC6" style="stroke:#181818;stroke-width:1;stroke-dasharray:7.0,7.0;"/><polygon fill="#181818" points="476.22,172.3,485.1655,176.4205,481.2195,172.3672,485.2729,168.4212,476.22,172.3" style="stroke:#181818;stroke-width:1;"/><text fill="#000000" font-family="sans-serif" font-size="13" lengthAdjust="spacing" textLength="47.0996" x="543.65" y="169.0669">include</text></g><!--reverse link UC6 to UC4--><g id="link_UC6_UC4"><path d="M922.5108,145.435 C990.3308,130.565 1070.65,112.95 1136.87,98.43 " fill="#FFFFFF" fill-opacity="0.00000" id="UC6-backto-UC4" style="stroke:#181818;stroke-width:1;stroke-dasharray:7.0,7.0;"/><polygon fill="#181818" points="916.65,146.72,926.2978,148.6997,921.534,145.6492,924.5845,140.8853,916.65,146.72" style="stroke:#181818;stroke-width:1;"/><text fill="#000000" font-family="sans-serif" font-size="13" lengthAdjust="spacing" textLength="45.2778" x="1019.18" y="111.0669">extend</text></g><!--reverse link UC6 to UC2--><g id="link_UC6_UC2"><path d="M940.9636,191.2604 C1016.5336,202.6004 1103.24,215.61 1166.29,225.06 " fill="#FFFFFF" fill-opacity="0.00000" id="UC6-backto-UC2" style="stroke:#181818;stroke-width:1;stroke-dasharray:7.0,7.0;"/><polygon fill="#181818" points="935.03,190.37,943.3368,195.6613,939.9746,191.112,944.5239,187.7499,935.03,190.37" style="stroke:#181818;stroke-width:1;"/><text fill="#000000" font-family="sans-serif" font-size="13" lengthAdjust="spacing" textLength="45.2778" x="1019.18" y="200.0669">extend</text></g><!--reverse link UC6 to UC3--><g id="link_UC6_UC3"><path d="M968.0287,167.6352 C1033.8587,166.2652 1101.81,164.85 1156.75,163.71 " fill="#FFFFFF" fill-opacity="0.00000" id="UC6-backto-UC3" style="stroke:#181818;stroke-width:1;stroke-dasharray:7.0,7.0;"/><polygon fill="#181818" points="962.03,167.76,971.1113,171.5719,967.0289,167.656,970.9448,163.5736,962.03,167.76" style="stroke:#181818;stroke-width:1;"/><text fill="#000000" font-family="sans-serif" font-size="13" lengthAdjust="spacing" textLength="45.2778" x="1019.18" y="162.0669">extend</text></g><!--reverse link RZ to RZ1--><g id="link_RZ_RZ1"><path d="M493.3247,715.6962 C511.1947,722.0362 522.46,729.6 534.65,744 C552.89,765.54 523.81,785.98 542.65,807 C590.09,859.95 674.57,868.82 734.62,867.43 " fill="#FFFFFF" fill-opacity="0.00000" id="RZ-backto-RZ1" style="stroke:#181818;stroke-width:1;stroke-dasharray:7.0,7.0;"/><polygon fill="#181818" points="487.67,713.69,494.8145,720.4691,492.3822,715.3618,497.4895,712.9295,487.67,713.69" style="stroke:#181818;stroke-width:1;"/><text fill="#000000" font-family="sans-serif" font-size="13" lengthAdjust="spacing" textLength="47.0996" x="543.65" y="803.0669">include</text></g><!--reverse link RZ1 to AP2--><g id="link_RZ1_AP2"><path d="M872.5288,872.0735 C954.9788,885.7735 1095.6,909.14 1178.19,922.87 " fill="#FFFFFF" fill-opacity="0.00000" id="RZ1-backto-AP2" style="stroke:#181818;stroke-width:1;stroke-dasharray:7.0,7.0;"/><polygon fill="#181818" points="866.61,871.09,874.8326,876.5111,871.5424,871.9096,876.1439,868.6193,866.61,871.09" style="stroke:#181818;stroke-width:1;"/><text fill="#000000" font-family="sans-serif" font-size="13" lengthAdjust="spacing" textLength="45.2778" x="1019.18" y="893.0669">extend</text></g><!--reverse link RZ1 to AP1--><g id="link_RZ1_AP1"><path d="M883.4412,866.0445 C935.5012,868.8645 1001.72,871.19 1065.18,869 C1099.07,867.83 1136.61,865.39 1168.12,863.01 " fill="#FFFFFF" fill-opacity="0.00000" id="RZ1-backto-AP1" style="stroke:#181818;stroke-width:1;stroke-dasharray:7.0,7.0;"/><polygon fill="#181818" points="877.45,865.72,886.2205,870.2009,882.4427,865.9904,886.6532,862.2127,877.45,865.72" style="stroke:#181818;stroke-width:1;"/><text fill="#000000" font-family="sans-serif" font-size="13" lengthAdjust="spacing" textLength="45.2778" x="1019.18" y="865.0669">extend</text></g><!--reverse link RZ1 to AP3--><g id="link_RZ1_AP3"><path d="M884.6264,856.7277 C919.5064,852.4977 954.88,844.35 988.18,826 C1005.25,816.59 1001.66,804.36 1018.18,794 C1065.68,764.21 1127.04,746.4 1173.04,736.35 " fill="#FFFFFF" fill-opacity="0.00000" id="RZ1-backto-AP3" style="stroke:#181818;stroke-width:1;stroke-dasharray:7.0,7.0;"/><polygon fill="#181818" points="878.67,857.45,888.0861,860.3374,883.6336,856.848,887.123,852.3956,878.67,857.45" style="stroke:#181818;stroke-width:1;"/><text fill="#000000" font-family="sans-serif" font-size="13" lengthAdjust="spacing" textLength="45.2778" x="1019.18" y="766.0669">extend</text></g><!--SRC=[dLJTQXf16BsVfnZIQqjsjRbeIo7aKWABcXllHBU980fge50AIMoQcvAMKcW99KtR5zYOMBSccbVuzerwlczMdQIEGeLbnptd-pjpPXhXowxkjdIxlhlNrRLwEwnswwscgbIxhRPUepEwePW6D4wET790W-GmEQ89LX6DALhJbOxEpyZVc8Zdcdw3UQ3fZYQQ8iGSSWmYOxeroPAUn6uNbmRBSoEVnnGd7qnCaCRGJn2FWJ1dGbSCbfJY4IhDtKQewGlQ7E4PwjTAxNV2QgKJejH7wlCKD9p1T8UH9dITz6WaK5zARGPMr2y0VMuDBSQOuBt6M7TOOZWQkLEiswK_yJ0YOcmY8kGSKPnoFRiUwaGilzIQDvjIVOjwZdpJP0vwrg9_PyMINdBY8kUKtVE5K5dcFtgrPeMo5Ve3do-viKLr2cKFTTvO6uPQG2zXbYEA8E_36X7i0wcmczOmpC0Ut7AKM5HAZLFjJjY-hbw3uBugaY3YpJ59xaKPinUVM24pVqq7l8IkfzYtIKhEMUGpf1fB1LQVtIDBn6kwuZ8iiR566hrwoXWPtyfvl4KBxz3tgSQPcwTEZbt9lNlRP7mSkSVsbVpcCL-HiMyEC-8EqCemRS4Sqvqjky9dDeBjptzhx6pvRlSlejkMFaTsTkWilqEP1qOOfAbo_osr8-46VBtIs2p78ajVGDOhtf3KZoAgkH1X7EZCSx9D1_YVgbtm-2ZbCvaNxBhj8XPmjxm5mw-4DMuqVk6GbgP8IMAKsWuCBkzyKQTVU1zbWHZpWODm3fvdCYZrg55lXezhbSvUM7kcdzQRrSP-BLIR0M3SVNevxZ_4mrVTi5a3l2wujmBFEl6iu3bNVPv01l0M4pHmJmZ-uWfAGHWGWa2xCXW2lB24iI6Cd6ECAUulXxEk5bMX30BkMPSCW9RkmnJtLk2EVVWB]--></g></svg>