<svg xmlns="http://www.w3.org/2000/svg" xmlns:xlink="http://www.w3.org/1999/xlink" contentStyleType="text/css" data-diagram-type="DESCRIPTION" height="937px" preserveAspectRatio="none" style="width:1716px;height:937px;background:#FFFFFF;" version="1.1" viewBox="0 0 1716 937" width="1716px" zoomAndPan="magnify"><defs/><g><!--cluster ?????--><g id="cluster_&#1047;&#1072;&#1082;&#1072;&#1079;"><rect fill="#FFFFFF" fill-opacity="0.00000" height="338" rx="2.5" ry="2.5" style="stroke:#181818;stroke-width:1;" width="1417.68" x="292.45" y="593"/><text fill="#000000" font-family="sans-serif" font-size="14" font-weight="bold" lengthAdjust="spacing" textLength="46.4775" x="978.0512" y="607.9951">&#1047;&#1072;&#1082;&#1072;&#1079;</text></g><!--cluster ?????? ? ??????????--><g id="cluster_&#1056;&#1072;&#1073;&#1086;&#1090;&#1072; &#1089; &#1087;&#1088;&#1086;&#1076;&#1091;&#1082;&#1090;&#1072;&#1084;&#1080;"><rect fill="#FFFFFF" fill-opacity="0.00000" height="346" rx="2.5" ry="2.5" style="stroke:#181818;stroke-width:1;" width="1180.64" x="261.32" y="7"/><text fill="#000000" font-family="sans-serif" font-size="14" font-weight="bold" lengthAdjust="spacing" textLength="172.7715" x="765.2543" y="21.9951">&#1056;&#1072;&#1073;&#1086;&#1090;&#1072; &#1089; &#1087;&#1088;&#1086;&#1076;&#1091;&#1082;&#1090;&#1072;&#1084;&#1080;</text></g><!--cluster ?????? ? ???????--><g id="cluster_&#1056;&#1072;&#1073;&#1086;&#1090;&#1072; &#1089; &#1087;&#1088;&#1072;&#1074;&#1072;&#1084;&#1080;"><rect fill="#FFFFFF" fill-opacity="0.00000" height="192" rx="2.5" ry="2.5" style="stroke:#181818;stroke-width:1;" width="279.45" x="275.65" y="377"/><text fill="#000000" font-family="sans-serif" font-size="14" font-weight="bold" lengthAdjust="spacing" textLength="143.4111" x="343.6694" y="391.9951">&#1056;&#1072;&#1073;&#1086;&#1090;&#1072; &#1089; &#1087;&#1088;&#1072;&#1074;&#1072;&#1084;&#1080;</text></g><g id="elem_AP"><ellipse cx="415.3745" cy="732.9969" fill="#F1F1F1" rx="97.0345" ry="21.8069" style="stroke:#181818;stroke-width:0.5;"/><text fill="#000000" font-family="sans-serif" font-size="14" lengthAdjust="spacing" textLength="157.5" x="336.6245" y="735.8436">&#1040;&#1074;&#1090;&#1086;&#1079;&#1072;&#1082;&#1072;&#1079; &#1087;&#1088;&#1086;&#1076;&#1091;&#1082;&#1090;&#1086;&#1074;</text></g><g id="elem_AP0"><ellipse cx="845.6896" cy="730.9959" fill="#F1F1F1" rx="123.6796" ry="27.1359" style="stroke:#181818;stroke-width:0.5;"/><text fill="#000000" font-family="sans-serif" font-size="14" lengthAdjust="spacing" textLength="215.1885" x="738.0954" y="733.8426">&#1059;&#1090;&#1074;&#1077;&#1088;&#1076;&#1080;&#1090;&#1100; &#1089;&#1087;&#1080;&#1089;&#1086;&#1082; &#1087;&#1088;&#1086;&#1076;&#1091;&#1082;&#1090;&#1086;&#1074;</text></g><g id="elem_AP1"><ellipse cx="1280.9552" cy="673.999" fill="#F1F1F1" rx="76.2452" ry="17.649" style="stroke:#181818;stroke-width:0.5;"/><text fill="#000000" font-family="sans-serif" font-size="14" lengthAdjust="spacing" textLength="109.1973" x="1223.3565" y="677.7466">&#1042;&#1085;&#1077;&#1089;&#1090;&#1080; &#1087;&#1088;&#1072;&#1074;&#1082;&#1080;</text></g><g id="elem_AP2"><ellipse cx="1280.9612" cy="883.0042" fill="#F1F1F1" rx="75.0712" ry="17.4142" style="stroke:#181818;stroke-width:0.5;"/><text fill="#000000" font-family="sans-serif" font-size="14" lengthAdjust="spacing" textLength="106.1963" x="1224.863" y="886.7518">&#1059;&#1076;&#1072;&#1083;&#1080;&#1090;&#1100; &#1079;&#1072;&#1082;&#1072;&#1079;</text></g><g id="elem_AP3"><ellipse cx="1280.961" cy="807.0002" fill="#F1F1F1" rx="82.501" ry="18.9002" style="stroke:#181818;stroke-width:0.5;"/><text fill="#000000" font-family="sans-serif" font-size="14" lengthAdjust="spacing" textLength="124.5029" x="1217.9458" y="810.1028">&#1054;&#1090;&#1087;&#1088;&#1072;&#1074;&#1080;&#1090;&#1100; &#1079;&#1072;&#1082;&#1072;&#1079;</text></g><g id="elem_AP4"><ellipse cx="1615.5516" cy="806.9963" fill="#F1F1F1" rx="78.5816" ry="18.1163" style="stroke:#181818;stroke-width:0.5;"/><text fill="#000000" font-family="sans-serif" font-size="14" lengthAdjust="spacing" textLength="115.0557" x="1555.8065" y="810.5345">&#1055;&#1086;&#1083;&#1091;&#1095;&#1080;&#1090;&#1100; &#1079;&#1072;&#1082;&#1072;&#1079;</text></g><g id="elem_RZ"><ellipse cx="415.3678" cy="651.9956" fill="#F1F1F1" rx="106.9278" ry="23.7856" style="stroke:#181818;stroke-width:0.5;"/><text fill="#000000" font-family="sans-serif" font-size="14" lengthAdjust="spacing" textLength="179.2178" x="325.7589" y="654.8422">&#1056;&#1091;&#1095;&#1085;&#1086;&#1081; &#1079;&#1072;&#1082;&#1072;&#1079; &#1087;&#1088;&#1086;&#1076;&#1091;&#1082;&#1090;&#1086;&#1074;</text></g><g id="elem_RZ1"><ellipse cx="845.687" cy="811.0034" fill="#F1F1F1" rx="74.917" ry="17.3834" style="stroke:#181818;stroke-width:0.5;"/><text fill="#000000" font-family="sans-serif" font-size="14" lengthAdjust="spacing" textLength="105.7998" x="789.7871" y="814.751">&#1057;&#1086;&#1073;&#1088;&#1072;&#1090;&#1100; &#1079;&#1072;&#1082;&#1072;&#1079;</text></g><g id="elem_PP"><ellipse cx="415.3651" cy="149.001" fill="#F1F1F1" rx="138.0551" ry="30.011" style="stroke:#181818;stroke-width:0.5;"/><text fill="#000000" font-family="sans-serif" font-size="14" lengthAdjust="spacing" textLength="245.5264" x="292.6019" y="151.8477">&#1055;&#1088;&#1086;&#1089;&#1084;&#1086;&#1090;&#1088;&#1077;&#1090;&#1100; &#1085;&#1072;&#1083;&#1080;&#1095;&#1080;&#1077; &#1087;&#1088;&#1086;&#1076;&#1091;&#1082;&#1090;&#1086;&#1074;</text></g><g id="elem_KS"><ellipse cx="415.3746" cy="312.0049" fill="#F1F1F1" rx="111.8246" ry="24.7649" style="stroke:#181818;stroke-width:0.5;"/><text fill="#000000" font-family="sans-serif" font-size="14" lengthAdjust="spacing" textLength="189.8203" x="320.4644" y="314.8516">&#1050;&#1086;&#1085;&#1090;&#1088;&#1086;&#1083;&#1100; &#1089;&#1088;&#1086;&#1082;&#1072; &#1075;&#1086;&#1076;&#1085;&#1086;&#1089;&#1090;&#1080;</text></g><g id="elem_KS1"><ellipse cx="845.6941" cy="298.0028" fill="#F1F1F1" rx="183.2641" ry="39.0528" style="stroke:#181818;stroke-width:0.5;"/><text fill="#000000" font-family="sans-serif" font-size="14" lengthAdjust="spacing" textLength="339.1992" x="676.0945" y="300.8495">&#1055;&#1088;&#1086;&#1089;&#1084;&#1086;&#1090;&#1088;&#1077;&#1090;&#1100; &#1080;&#1085;&#1092;&#1086;&#1088;&#1084;&#1072;&#1094;&#1080;&#1102; &#1086; &#1089;&#1088;&#1086;&#1082;&#1072;&#1093; &#1075;&#1086;&#1076;&#1085;&#1086;&#1089;&#1090;&#1080;</text></g><g id="elem_KS2"><ellipse cx="1280.9639" cy="316.9968" fill="#F1F1F1" rx="83.2839" ry="19.0568" style="stroke:#181818;stroke-width:0.5;"/><text fill="#000000" font-family="sans-serif" font-size="14" lengthAdjust="spacing" textLength="126.3418" x="1217.2956" y="320.0123">&#1057;&#1087;&#1080;&#1089;&#1072;&#1090;&#1100; &#1087;&#1088;&#1086;&#1076;&#1091;&#1082;&#1090;</text></g><g id="elem_KS3"><ellipse cx="415.3722" cy="63.0004" fill="#F1F1F1" rx="91.0022" ry="20.6004" style="stroke:#181818;stroke-width:0.5;"/><text fill="#000000" font-family="sans-serif" font-size="14" lengthAdjust="spacing" textLength="144.0059" x="343.3692" y="65.8471">&#1055;&#1086;&#1090;&#1088;&#1072;&#1090;&#1080;&#1090;&#1100; &#1087;&#1088;&#1086;&#1076;&#1091;&#1082;&#1090;</text></g><g id="elem_UC1"><ellipse cx="415.3698" cy="233" fill="#F1F1F1" rx="82.0498" ry="18.81" style="stroke:#181818;stroke-width:0.5;"/><text fill="#000000" font-family="sans-serif" font-size="14" lengthAdjust="spacing" textLength="123.4365" x="352.731" y="236.1527">&#1048;&#1085;&#1074;&#1077;&#1085;&#1090;&#1072;&#1088;&#1080;&#1079;&#1072;&#1094;&#1080;&#1103;</text></g><g id="elem_UC2"><ellipse cx="1280.9598" cy="243.004" fill="#F1F1F1" rx="87.5198" ry="19.904" style="stroke:#181818;stroke-width:0.5;"/><text fill="#000000" font-family="sans-serif" font-size="14" lengthAdjust="spacing" textLength="136.1035" x="1212.908" y="245.8506">&#1044;&#1086;&#1073;&#1072;&#1074;&#1080;&#1090;&#1100; &#1087;&#1088;&#1086;&#1076;&#1091;&#1082;&#1090;</text></g><g id="elem_UC3"><ellipse cx="1280.962" cy="169.0024" fill="#F1F1F1" rx="83.512" ry="19.1024" style="stroke:#181818;stroke-width:0.5;"/><text fill="#000000" font-family="sans-serif" font-size="14" lengthAdjust="spacing" textLength="126.875" x="1217.1034" y="171.9926">&#1059;&#1076;&#1072;&#1083;&#1080;&#1090;&#1100; &#1087;&#1088;&#1086;&#1076;&#1091;&#1082;&#1090;</text></g><g id="elem_UC4"><ellipse cx="1280.9634" cy="83.0007" fill="#F1F1F1" rx="145.0034" ry="31.4007" style="stroke:#181818;stroke-width:0.5;"/><text fill="#000000" font-family="sans-serif" font-size="14" lengthAdjust="spacing" textLength="260.0664" x="1150.9302" y="85.8474">&#1054;&#1073;&#1085;&#1086;&#1074;&#1080;&#1090;&#1100; &#1080;&#1085;&#1092;&#1086;&#1088;&#1084;&#1072;&#1094;&#1080;&#1102; &#1086; &#1087;&#1088;&#1086;&#1076;&#1091;&#1082;&#1090;&#1077;</text></g><g id="elem_UC6"><ellipse cx="845.6852" cy="188.995" fill="#F1F1F1" rx="157.3752" ry="33.875" style="stroke:#181818;stroke-width:0.5;"/><text fill="#000000" font-family="sans-serif" font-size="14" lengthAdjust="spacing" textLength="285.8037" x="702.7833" y="191.8417">&#1055;&#1088;&#1086;&#1089;&#1084;&#1086;&#1090;&#1088;&#1077;&#1090;&#1100; &#1080;&#1085;&#1092;&#1086;&#1088;&#1084;&#1072;&#1094;&#1080;&#1102; &#1086; &#1087;&#1088;&#1086;&#1076;&#1091;&#1082;&#1090;&#1077;</text></g><g id="elem_UR1"><ellipse cx="415.3651" cy="438.003" fill="#F1F1F1" rx="116.6651" ry="25.733" style="stroke:#181818;stroke-width:0.5;"/><text fill="#000000" font-family="sans-serif" font-size="14" lengthAdjust="spacing" textLength="200.2246" x="315.2528" y="440.8497">&#1056;&#1077;&#1075;&#1080;&#1089;&#1090;&#1088;&#1072;&#1094;&#1080;&#1103; &#1087;&#1086;&#1083;&#1100;&#1079;&#1086;&#1074;&#1072;&#1090;&#1077;&#1083;&#1103;</text></g><g id="elem_UR2"><ellipse cx="415.3747" cy="526.0049" fill="#F1F1F1" rx="123.7247" ry="27.1449" style="stroke:#181818;stroke-width:0.5;"/><text fill="#000000" font-family="sans-serif" font-size="14" lengthAdjust="spacing" textLength="215.2842" x="307.7326" y="528.8516">&#1040;&#1091;&#1090;&#1077;&#1085;&#1092;&#1080;&#1082;&#1072;&#1094;&#1080;&#1103; &#1087;&#1086;&#1083;&#1100;&#1079;&#1086;&#1074;&#1072;&#1090;&#1077;&#1083;&#1103;</text></g><!--entity MS--><g id="elem_MS"><ellipse cx="110.1592" cy="326.35" fill="#F1F1F1" rx="8" ry="8" style="stroke:#181818;stroke-width:0.5;"/><path d="M110.1592,334.35 L110.1592,361.35 M97.1592,342.35 L123.1592,342.35 M110.1592,361.35 L97.1592,376.35 M110.1592,361.35 L123.1592,376.35 " fill="#FFFFFF" fill-opacity="0.00000" style="stroke:#181818;stroke-width:0.5;"/><text fill="#000000" font-family="sans-serif" font-size="14" lengthAdjust="spacing" textLength="208.3184" x="6" y="390.8451">&#1052;&#1077;&#1085;&#1077;&#1076;&#1078;&#1077;&#1088; &#1087;&#1086; &#1072;&#1089;&#1089;&#1086;&#1088;&#1090;&#1080;&#1084;&#1077;&#1085;&#1090;&#1091;</text></g><!--entity MP--><g id="elem_MP"><ellipse cx="110.1637" cy="437.35" fill="#F1F1F1" rx="8" ry="8" style="stroke:#181818;stroke-width:0.5;"/><path d="M110.1637,445.35 L110.1637,472.35 M97.1637,453.35 L123.1637,453.35 M110.1637,472.35 L97.1637,487.35 M110.1637,472.35 L123.1637,487.35 " fill="#FFFFFF" fill-opacity="0.00000" style="stroke:#181818;stroke-width:0.5;"/><text fill="#000000" font-family="sans-serif" font-size="14" lengthAdjust="spacing" textLength="171.5273" x="24.4" y="501.8451">&#1052;&#1077;&#1085;&#1077;&#1076;&#1078;&#1077;&#1088; &#1087;&#1086;&#1087;&#1086;&#1083;&#1085;&#1077;&#1085;&#1080;&#1103;</text></g><!--entity T--><g id="elem_T"><ellipse cx="110.159" cy="548.35" fill="#F1F1F1" rx="8" ry="8" style="stroke:#181818;stroke-width:0.5;"/><path d="M110.159,556.35 L110.159,583.35 M97.159,564.35 L123.159,564.35 M110.159,583.35 L97.159,598.35 M110.159,583.35 L123.159,598.35 " fill="#FFFFFF" fill-opacity="0.00000" style="stroke:#181818;stroke-width:0.5;"/><text fill="#000000" font-family="sans-serif" font-size="14" lengthAdjust="spacing" textLength="68.0381" x="76.14" y="612.8451">&#1058;&#1077;&#1093;&#1085;&#1086;&#1083;&#1086;&#1075;</text></g><!--entity R--><g id="elem_R"><ellipse cx="110.1563" cy="33.35" fill="#F1F1F1" rx="8" ry="8" style="stroke:#181818;stroke-width:0.5;"/><path d="M110.1563,41.35 L110.1563,68.35 M97.1563,49.35 L123.1563,49.35 M110.1563,68.35 L97.1563,83.35 M110.1563,68.35 L123.1563,83.35 " fill="#FFFFFF" fill-opacity="0.00000" style="stroke:#181818;stroke-width:0.5;"/><text fill="#000000" font-family="sans-serif" font-size="14" lengthAdjust="spacing" textLength="116.0127" x="52.15" y="97.8451">&#1057;&#1080;&#1089;&#1090;&#1077;&#1084;&#1072; &#1079;&#1072;&#1082;&#1072;&#1079;&#1072;</text></g><!--link MS to PP--><g id="link_MS_PP"><path d="M136.23,317.38 C161.62,281.23 204.08,228.25 253.32,197 C271.67,185.35 287.2729,178.2716 308.2629,171.4616 " fill="#FFFFFF" fill-opacity="0.00000" id="MS-to-PP" style="stroke:#181818;stroke-width:1;"/><polygon fill="#181818" points="313.97,169.61,304.1749,168.5827,309.214,171.153,306.6437,176.1922,313.97,169.61" style="stroke:#181818;stroke-width:1;"/></g><!--link MS to UR1--><g id="link_MS_UR1"><path d="M214.66,383.99 C256.01,395.17 296.8881,406.2234 334.7081,416.4534 " fill="#FFFFFF" fill-opacity="0.00000" id="MS-to-UR1" style="stroke:#181818;stroke-width:1;"/><polygon fill="#181818" points="340.5,418.02,332.8566,411.8088,335.6735,416.7145,330.7678,419.5313,340.5,418.02" style="stroke:#181818;stroke-width:1;"/></g><!--link MS to UR2--><g id="link_MS_UR2"><path d="M194.15,394.53 C201.37,399.54 208.24,405.03 214.32,411 C239.73,435.95 225.35,458.95 253.32,481 C270.53,494.57 285.8737,502.2585 307.0337,508.8785 " fill="#FFFFFF" fill-opacity="0.00000" id="MS-to-UR2" style="stroke:#181818;stroke-width:1;"/><polygon fill="#181818" points="312.76,510.67,305.3649,504.1652,307.9881,509.1771,302.9762,511.8003,312.76,510.67" style="stroke:#181818;stroke-width:1;"/></g><!--link T to AP--><g id="link_T_AP"><path d="M138.12,616.41 C162.17,647.44 200.33,689.39 244.32,711 C266.9,722.09 287.1511,727.4786 312.1211,730.7586 " fill="#FFFFFF" fill-opacity="0.00000" id="T-to-AP" style="stroke:#181818;stroke-width:1;"/><polygon fill="#181818" points="318.07,731.54,309.6676,726.4019,313.1126,730.8888,308.6257,734.3338,318.07,731.54" style="stroke:#181818;stroke-width:1;"/></g><!--link T to RZ--><g id="link_T_RZ"><path d="M144.66,593.32 C171.18,604.83 209.42,620.09 244.32,629 C267.41,634.9 286.7381,638.5268 310.5581,641.8668 " fill="#FFFFFF" fill-opacity="0.00000" id="T-to-RZ" style="stroke:#181818;stroke-width:1;"/><polygon fill="#181818" points="316.5,642.7,308.1426,637.489,311.5484,642.0057,307.0318,645.4115,316.5,642.7" style="stroke:#181818;stroke-width:1;"/></g><!--link T to UR1--><g id="link_T_UR1"><path d="M144.43,563.74 C165.51,553.88 192.77,539.59 214.32,523 C234.5,507.46 231.49,494.13 253.32,481 C273.9,468.62 292.2812,461.3179 315.5412,454.9779 " fill="#FFFFFF" fill-opacity="0.00000" id="T-to-UR1" style="stroke:#181818;stroke-width:1;"/><polygon fill="#181818" points="321.33,453.4,311.5949,451.9076,316.506,454.7149,313.6987,459.626,321.33,453.4" style="stroke:#181818;stroke-width:1;"/></g><!--link T to UR2--><g id="link_T_UR2"><path d="M144.48,572.29 C185.63,565.23 251.5362,553.9236 310.7562,543.7736 " fill="#FFFFFF" fill-opacity="0.00000" id="T-to-UR2" style="stroke:#181818;stroke-width:1;"/><polygon fill="#181818" points="316.67,542.76,307.1236,540.3379,311.7419,543.6047,308.4751,548.2229,316.67,542.76" style="stroke:#181818;stroke-width:1;"/></g><!--link T to KS--><g id="link_T_KS"><path d="M144.37,567.86 C167.09,559.32 196.24,544.92 214.32,523 C251.88,477.44 215.55,441.39 253.32,396 C278.13,366.18 310.717,347.8778 343.657,334.5678 " fill="#FFFFFF" fill-opacity="0.00000" id="T-to-KS" style="stroke:#181818;stroke-width:1;"/><polygon fill="#181818" points="349.22,332.32,339.3769,331.9831,344.5841,334.1932,342.374,339.4004,349.22,332.32" style="stroke:#181818;stroke-width:1;"/></g><!--link MP to AP--><g id="link_MP_AP"><path d="M196.05,503.85 C202.89,509.2 209.14,515.23 214.32,522 C261.66,583.93 198.73,637.35 253.32,693 C271.27,711.3 290.3659,720.3611 315.2659,726.1511 " fill="#FFFFFF" fill-opacity="0.00000" id="MP-to-AP" style="stroke:#181818;stroke-width:1;"/><polygon fill="#181818" points="321.11,727.51,313.2498,721.5756,316.2399,726.3776,311.4379,729.3677,321.11,727.51" style="stroke:#181818;stroke-width:1;"/></g><!--link MP to KS--><g id="link_MP_KS"><path d="M196.21,429.52 C202.93,424.31 209.11,418.49 214.32,412 C245.49,373.14 204.66,334.15 244.32,304 C274.79,280.84 312.097,281.8401 347.307,289.7801 " fill="#FFFFFF" fill-opacity="0.00000" id="MP-to-KS" style="stroke:#181818;stroke-width:1;"/><polygon fill="#181818" points="353.16,291.1,345.2604,285.2182,348.2825,290.0001,343.5005,293.0222,353.16,291.1" style="stroke:#181818;stroke-width:1;"/></g><!--link R to KS3--><g id="link_R_KS3"><path d="M168.55,63 C212.41,63 267.72,63 318.13,63 " fill="#FFFFFF" fill-opacity="0.00000" id="R-to-KS3" style="stroke:#181818;stroke-width:1;"/><polygon fill="#181818" points="324.13,63,315.13,59,319.13,63,315.13,67,324.13,63" style="stroke:#181818;stroke-width:1;"/></g><!--link MP to UC1--><g id="link_MP_UC1"><path d="M196.08,430.18 C202.91,424.82 209.16,418.78 214.32,412 C253.96,359.92 195.15,300 253.32,270 C280.6,255.93 307.3148,248.2666 336.0348,242.8266 " fill="#FFFFFF" fill-opacity="0.00000" id="MP-to-UC1" style="stroke:#181818;stroke-width:1;"/><polygon fill="#181818" points="341.93,241.71,332.3428,239.4548,337.0174,242.6405,333.8317,247.3151,341.93,241.71" style="stroke:#181818;stroke-width:1;"/></g><!--link MP to RZ--><g id="link_MP_RZ"><path d="M191.18,505.57 C199.29,510.67 207.16,516.16 214.32,522 C235.36,539.15 232.16,552 253.32,569 C285.93,595.21 322.6255,614.1796 355.6555,628.6696 " fill="#FFFFFF" fill-opacity="0.00000" id="MP-to-RZ" style="stroke:#181818;stroke-width:1;"/><polygon fill="#181818" points="361.15,631.08,354.5151,623.8014,356.5712,629.0713,351.3013,631.1274,361.15,631.08" style="stroke:#181818;stroke-width:1;"/></g><!--link MP to UR1--><g id="link_MP_UR1"><path d="M196.28,437.43 C212.07,433.1 228.56,429.32 244.32,427 C267.15,423.64 285.8682,423.0464 309.1782,424.2664 " fill="#FFFFFF" fill-opacity="0.00000" id="MP-to-UR1" style="stroke:#181818;stroke-width:1;"/><polygon fill="#181818" points="315.17,424.58,306.3914,420.1151,310.1768,424.3187,305.9732,428.1041,315.17,424.58" style="stroke:#181818;stroke-width:1;"/></g><!--link MP to UR2--><g id="link_MP_UR2"><path d="M196.23,494.22 C212.09,498.63 228.62,502.8 244.32,506 C262.52,509.71 276.0333,512.0019 295.0333,514.5519 " fill="#FFFFFF" fill-opacity="0.00000" id="MP-to-UR2" style="stroke:#181818;stroke-width:1;"/><polygon fill="#181818" points="300.98,515.35,292.592,510.1884,296.0244,514.6849,291.5279,518.1173,300.98,515.35" style="stroke:#181818;stroke-width:1;"/></g><!--reverse link AP to AP0--><g id="link_AP_AP0"><path d="M518.7599,732.5218 C580.5599,732.2318 655.34,731.88 721.74,731.57 " fill="#FFFFFF" fill-opacity="0.00000" id="AP-backto-AP0" style="stroke:#181818;stroke-width:1;stroke-dasharray:7.0,7.0;"/><polygon fill="#181818" points="512.76,732.55,521.7787,736.5077,517.7599,732.5265,521.7411,728.5078,512.76,732.55" style="stroke:#181818;stroke-width:1;"/><text fill="#000000" font-family="sans-serif" font-size="13" lengthAdjust="spacing" textLength="47.0996" x="584.43" y="728.0669">include</text></g><!--reverse link AP to AP2--><g id="link_AP_AP2"><path d="M450.5209,757.5786 C494.8309,788.2986 577.9,840.59 662.43,863 C856.83,914.55 1097.74,901.32 1212.74,890.54 " fill="#FFFFFF" fill-opacity="0.00000" id="AP-backto-AP2" style="stroke:#181818;stroke-width:1;stroke-dasharray:7.0,7.0;"/><polygon fill="#181818" points="445.59,754.16,450.7073,762.5751,449.6991,757.0088,455.2653,756.0006,445.59,754.16" style="stroke:#181818;stroke-width:1;"/><text fill="#000000" font-family="sans-serif" font-size="13" lengthAdjust="spacing" textLength="45.2778" x="823.19" y="859.0669">extend</text></g><!--reverse link AP0 to AP1--><g id="link_AP0_AP1"><path d="M931.8212,708.6167 C971.4712,699.0067 1014.52,689.88 1058.96,684 C1107.03,677.64 1161.44,675.12 1204.24,674.2 " fill="#FFFFFF" fill-opacity="0.00000" id="AP0-backto-AP1" style="stroke:#181818;stroke-width:1;stroke-dasharray:7.0,7.0;"/><polygon fill="#181818" points="925.99,710.03,935.679,711.7975,930.8493,708.8522,933.7946,704.0226,925.99,710.03" style="stroke:#181818;stroke-width:1;"/><text fill="#000000" font-family="sans-serif" font-size="13" lengthAdjust="spacing" textLength="45.2778" x="1059.96" y="675.0669">extend</text></g><!--reverse link AP0 to AP3--><g id="link_AP0_AP3"><path d="M949.2998,748.9966 C1031.8498,763.4766 1142.42,782.87 1214.46,795.51 " fill="#FFFFFF" fill-opacity="0.00000" id="AP0-backto-AP3" style="stroke:#181818;stroke-width:1;stroke-dasharray:7.0,7.0;"/><polygon fill="#181818" points="943.39,747.96,951.5636,753.4548,948.3148,748.8239,952.9457,745.5751,943.39,747.96" style="stroke:#181818;stroke-width:1;"/><text fill="#000000" font-family="sans-serif" font-size="13" lengthAdjust="spacing" textLength="45.2778" x="1059.96" y="765.0669">extend</text></g><!--reverse link AP3 to AP4--><g id="link_AP3_AP4"><path d="M1369.75,807 C1422.45,807 1484.57,807 1536.51,807 " fill="#FFFFFF" fill-opacity="0.00000" id="AP3-backto-AP4" style="stroke:#181818;stroke-width:1;stroke-dasharray:7.0,7.0;"/><polygon fill="#181818" points="1363.75,807,1372.75,811,1368.75,807,1372.75,803,1363.75,807" style="stroke:#181818;stroke-width:1;"/><text fill="#000000" font-family="sans-serif" font-size="13" lengthAdjust="spacing" textLength="47.0996" x="1458.96" y="803.0669">include</text></g><!--reverse link KS to KS1--><g id="link_KS_KS1"><path d="M532.3968,308.2044 C574.4068,306.8344 617.49,305.43 664.35,303.89 " fill="#FFFFFF" fill-opacity="0.00000" id="KS-backto-KS1" style="stroke:#181818;stroke-width:1;stroke-dasharray:7.0,7.0;"/><polygon fill="#181818" points="526.4,308.4,535.5256,312.1045,531.3973,308.237,535.2648,304.1088,526.4,308.4" style="stroke:#181818;stroke-width:1;"/><text fill="#000000" font-family="sans-serif" font-size="13" lengthAdjust="spacing" textLength="47.0996" x="584.43" y="301.0669">include</text></g><!--reverse link KS1 to KS2--><g id="link_KS1_KS2"><path d="M1031.7242,306.1133 C1091.8342,308.7533 1149.92,311.3 1198.71,313.44 " fill="#FFFFFF" fill-opacity="0.00000" id="KS1-backto-KS2" style="stroke:#181818;stroke-width:1;stroke-dasharray:7.0,7.0;"/><polygon fill="#181818" points="1025.73,305.85,1034.5458,310.241,1030.7252,306.0694,1034.8968,302.2487,1025.73,305.85" style="stroke:#181818;stroke-width:1;"/><text fill="#000000" font-family="sans-serif" font-size="13" lengthAdjust="spacing" textLength="45.2778" x="1059.96" y="304.0669">extend</text></g><!--reverse link UC1 to UC6--><g id="link_UC1_UC6"><path d="M496.9485,224.7264 C555.3085,218.7264 632.2,210.83 703.04,203.55 " fill="#FFFFFF" fill-opacity="0.00000" id="UC1-backto-UC6" style="stroke:#181818;stroke-width:1;stroke-dasharray:7.0,7.0;"/><polygon fill="#181818" points="490.98,225.34,500.3419,228.3986,495.9538,224.8286,499.5237,220.4405,490.98,225.34" style="stroke:#181818;stroke-width:1;"/><text fill="#000000" font-family="sans-serif" font-size="13" lengthAdjust="spacing" textLength="47.0996" x="584.43" y="207.0669">include</text></g><!--reverse link UC6 to UC4--><g id="link_UC6_UC4"><path d="M956.8481,162.0539 C1027.5881,144.7439 1114.58,123.46 1183.58,106.58 " fill="#FFFFFF" fill-opacity="0.00000" id="UC6-backto-UC4" style="stroke:#181818;stroke-width:1;stroke-dasharray:7.0,7.0;"/><polygon fill="#181818" points="951.02,163.48,960.7128,165.2262,955.8767,162.2916,958.8113,157.4555,951.02,163.48" style="stroke:#181818;stroke-width:1;"/><text fill="#000000" font-family="sans-serif" font-size="13" lengthAdjust="spacing" textLength="45.2778" x="1059.96" y="123.0669">extend</text></g><!--reverse link UC6 to UC2--><g id="link_UC6_UC2"><path d="M988.8438,206.7128 C1061.5438,215.7828 1142.37,225.85 1203.3,233.45 " fill="#FFFFFF" fill-opacity="0.00000" id="UC6-backto-UC2" style="stroke:#181818;stroke-width:1;stroke-dasharray:7.0,7.0;"/><polygon fill="#181818" points="982.89,205.97,991.3256,211.0534,987.8515,206.589,992.316,203.115,982.89,205.97" style="stroke:#181818;stroke-width:1;"/><text fill="#000000" font-family="sans-serif" font-size="13" lengthAdjust="spacing" textLength="45.2778" x="1059.96" y="212.0669">extend</text></g><!--reverse link UC6 to UC3--><g id="link_UC6_UC3"><path d="M1006.0536,181.6433 C1072.9936,178.5533 1142.78,175.33 1198.59,172.76 " fill="#FFFFFF" fill-opacity="0.00000" id="UC6-backto-UC3" style="stroke:#181818;stroke-width:1;stroke-dasharray:7.0,7.0;"/><polygon fill="#181818" points="1000.06,181.92,1009.2349,185.5007,1005.0547,181.6894,1008.866,177.5093,1000.06,181.92" style="stroke:#181818;stroke-width:1;"/><text fill="#000000" font-family="sans-serif" font-size="13" lengthAdjust="spacing" textLength="45.2778" x="1059.96" y="174.0669">extend</text></g><!--reverse link RZ to RZ1--><g id="link_RZ_RZ1"><path d="M514.71,665.6515 C534.54,671.9315 548.24,679.63 563.1,694 C584.25,714.45 561.85,737 583.43,757 C634.05,803.91 714.25,814.5 772.45,815.17 " fill="#FFFFFF" fill-opacity="0.00000" id="RZ-backto-RZ1" style="stroke:#181818;stroke-width:1;stroke-dasharray:7.0,7.0;"/><polygon fill="#181818" points="508.99,663.84,516.3624,670.3706,513.7567,665.3496,518.7777,662.7439,508.99,663.84" style="stroke:#181818;stroke-width:1;"/><text fill="#000000" font-family="sans-serif" font-size="13" lengthAdjust="spacing" textLength="47.0996" x="584.43" y="753.0669">include</text></g><!--reverse link RZ1 to AP2--><g id="link_RZ1_AP2"><path d="M913.3088,822.0735 C995.7588,835.7735 1136.38,859.14 1218.97,872.87 " fill="#FFFFFF" fill-opacity="0.00000" id="RZ1-backto-AP2" style="stroke:#181818;stroke-width:1;stroke-dasharray:7.0,7.0;"/><polygon fill="#181818" points="907.39,821.09,915.6126,826.5111,912.3224,821.9096,916.9239,818.6193,907.39,821.09" style="stroke:#181818;stroke-width:1;"/><text fill="#000000" font-family="sans-serif" font-size="13" lengthAdjust="spacing" textLength="45.2778" x="1059.96" y="843.0669">extend</text></g><!--reverse link RZ1 to AP1--><g id="link_RZ1_AP1"><path d="M925.4064,806.7277 C960.2864,802.4977 995.66,794.35 1028.96,776 C1046.03,766.59 1042.46,754.39 1058.96,744 C1108.33,712.89 1172.68,694.57 1219.19,684.52 " fill="#FFFFFF" fill-opacity="0.00000" id="RZ1-backto-AP1" style="stroke:#181818;stroke-width:1;stroke-dasharray:7.0,7.0;"/><polygon fill="#181818" points="919.45,807.45,928.8661,810.3374,924.4136,806.848,927.903,802.3956,919.45,807.45" style="stroke:#181818;stroke-width:1;"/><text fill="#000000" font-family="sans-serif" font-size="13" lengthAdjust="spacing" textLength="45.2778" x="1059.96" y="716.0669">extend</text></g><!--reverse link RZ1 to AP3--><g id="link_RZ1_AP3"><path d="M924.2212,816.0445 C976.2812,818.8645 1042.5,821.19 1105.96,819 C1137.73,817.91 1172.71,815.69 1202.93,813.46 " fill="#FFFFFF" fill-opacity="0.00000" id="RZ1-backto-AP3" style="stroke:#181818;stroke-width:1;stroke-dasharray:7.0,7.0;"/><polygon fill="#181818" points="918.23,815.72,927.0005,820.2009,923.2227,815.9904,927.4332,812.2127,918.23,815.72" style="stroke:#181818;stroke-width:1;"/><text fill="#000000" font-family="sans-serif" font-size="13" lengthAdjust="spacing" textLength="45.2778" x="1059.96" y="815.0669">extend</text></g><!--SRC=[dLJTQXD16BsVfnZgTQIx6xnG4KelGo1iqflSXMHj0o61P0k22FbfzKQqYA28z4TVO9jqxPeswIlCl97dczbj9Z7JY1V337FETxxVcLRmCkHXXtUR-mSXRpIxGJriTjgCrUfXfyktn7SHYndMbVWbOjdduaxCkOZaG0x4NFRbK2JYbZXoA4TRlDRZnVA3nchTgEkPIEH7RLDARSGF48-146Sk9WHMxlKkO320onWk8owkHIIcMDYLYiye_5fxlnLmyIK3-Ml63dj1lTOB874YnX2OBsmHbEpZuagEn5H1OoMsKpAiVW8OKmf89K6cxpdIlwDem9_Q9RPDrvyeQHL_eYqYQ4v5ad8Tqn_yHAY0zhK8DgMw1lKKUfcOXUuPz3Egh1p9TpPodfandoigjUCttrmplsgONk3waW9RvyUlEl3pncWOV06zn50DqLivMFKHeUSe5Rff94CCzE2Mh72EjQjPMZlaA69RhANIKgBV0CoK2DM7-gkEKvgp2PbJ4NJpb7cXl3cE18f7z4feNELRHFI1u_KifEMnJTnPAgIUjBIGI-caT7Uvmog8YEJi9jvI-byHmLW_OnZs4Vfr6h9-e7kxPaIVgRNcnFtjO6_NjS_pEhevfATGfvcxrxTKSgMrSIgL_-_MM0IVO58tZYgLOzsGdgEi4_rngQweekgl48E6EbEUaVhLRh9g-sQrJ_06XwetHuXx-gyIBWLTBEToBp3gQYVPzE2Y-wo28xuvsl1oAocZaX9envIpOadJr5ueS-QhtTCND1Zg00LzuJlP0KvsIizpEVo3_56hsGuUDsgzWw3nZ3zjjkkjmqQGuUug7hmAWtO3yBR2dGsuPyKzXUTj_XahbC70WrjFuC0THN3NUs0C5G01Gy9j4i0K8s-9CiFTXs7F5W7pgo3WIxLb2UZ1CcUuim6tbFaF]--></g></svg>